<svg width="1007" height="839" viewBox="0 0 1007 839" fill="none" xmlns="http://www.w3.org/2000/svg">
<g clip-path="url(#clip0)">
<path d="M385.863 223.211C393.008 229.612 398.683 237.34 402.532 245.908C403.394 247.559 403.858 249.371 403.891 251.209C403.729 254.304 401.25 256.981 398.176 258.083C395.05 259.059 391.655 258.957 388.588 257.795C385.655 256.792 382.798 254.935 381.775 252.148C380.812 249.534 381.652 246.601 383.201 244.267C384.657 242.06 388.709 243.285 389.875 240.509C391.042 237.733 385.146 232.733 383.951 229.952C383.034 227.82 383.932 229.278 381.609 227.339L385.863 223.211Z" fill="#EFB4B4"/>
<path d="M183.42 33.41C181.28 45.75 173.08 58.76 163.94 69.17C175.82 73.92 191.5 78.82 202.1 78.29C212.7 77.76 223.44 75.08 232.1 68.92C219.11 56 183.42 33.41 183.42 33.41Z" fill="black"/>
<path d="M220.32 87.29C221.32 81.05 219.63 70.22 218.66 69.11C215.25 66.11 206.66 71.3 200.11 70.62C193.56 69.94 194.3 66.48 190.23 61.36C187.71 58.19 182.08 63.87 181.36 59.88C180.5 55.15 183.66 43.02 182.12 38.51C180.74 34.45 176.24 26.98 179.73 19.51C183.22 12.04 197.65 4.34001 206.34 2.32001C223.85 -1.67999 238.76 18.86 243.66 36.15C244.774 39.8819 245.114 43.802 244.66 47.67C244.011 52.898 241.531 57.7271 237.66 61.3C235.26 63.44 233.66 69.3 233.81 70.84C234.14 74.13 235.13 79.25 236.61 87.47C236.56 87.47 219 95.35 220.32 87.29Z" fill="#EFB4B4"/>
<path d="M30.6901 216L16.0001 223.86C11.1001 226.48 6.00006 229.27 2.87006 233.86C0.757635 237.107 -0.245743 240.951 0.0102575 244.816C0.266258 248.682 1.76785 252.36 4.29006 255.3C15.4701 264.1 30.8601 249.38 30.6701 243.5C30.4801 237.62 27.5601 235 22.1001 232.8L35.2901 222.5C36.2001 221.8 30.6901 216 30.6901 216Z" fill="#EFB4B4"/>
<path d="M178.64 402.3C182.36 430.99 190.64 459.49 201.36 486.3C202.23 488.45 203.23 490.75 205.22 491.94C207.01 493.02 209.22 492.94 211.31 492.94C236.98 492.17 264.65 490.7 284.69 474.65C274.18 461.93 269.15 445.65 264.35 429.9C256.15 402.9 246.61 372.11 238.41 345.13C238.41 345.13 225.86 357.2 203.65 371.21C185.91 382.42 178.64 402.3 178.64 402.3Z" fill="#252626"/>
<path d="M188.79 269.46C172.11 285.57 147.93 309.91 131.25 326.02C121.42 335.51 117.53 353.84 111.05 369.47C100.84 394.11 98.38 400.64 92.9 416.93L72.9 476.42C91.21 492.63 118.22 492.9 142.66 492.28C144.694 492.394 146.724 492.002 148.57 491.14C150.57 489.96 151.79 487.73 152.81 485.6C157.44 475.91 158.81 464.5 161.54 454.12C167.54 431.19 173.82 397.26 190.16 380.12C197.41 372.51 206.82 367.41 215.47 361.43C224.65 355.07 261.22 326.1 268.73 312.05C276.24 298 280.44 281.8 278.28 266.05L274.16 239.75C274.16 239.75 216.48 257.75 149.73 240.85C148.95 240.85 139.46 278.64 150.14 305.23L188.79 269.46Z" fill="#252626"/>
<path d="M164.63 160C165.7 160.18 162.12 185.73 152.24 213.91C150.69 218.32 144.56 234 147.5 238.51C150.44 243.02 160.59 245.06 169.39 246.41C178.19 247.76 212.39 252.57 241.54 249.11C241.54 249.11 278.06 246.31 278.87 236.5C278.87 216.5 280.49 199.33 275.57 179.34C274.167 173.881 272.417 168.516 270.33 163.28C305.33 192.49 303.46 231.77 310.17 255.52C312.4 263.44 314.1 268.7 315.43 269.4C320.76 272.19 373.11 242.75 391.15 217.16C392.167 216.204 392.782 214.897 392.871 213.505C392.96 212.112 392.516 210.738 391.63 209.66C376.71 183.85 359.81 159.02 339.2 137.49C318.59 115.96 294.12 97.75 266.46 86.65C260.24 84.16 240.73 80.65 237.06 82.19C218.94 97.71 220.51 82.33 220.51 82.33C193.61 80.72 166.51 95.23 151.71 107.99C131.31 125.58 113.71 146.1 94.95 165.43C76.19 184.76 54.79 202.77 29.07 210.79C29.07 210.79 25.6 210.98 27.42 213.79C34.79 224.99 42.51 235.99 51.42 246C59.71 255.32 70.42 264.59 82.83 263.76C89.9 263.29 96.29 259.56 102.37 255.92C115.58 248.04 136.17 232.41 138.64 229.66C141.11 226.91 150.52 212.72 155.41 194.92C160.3 177.12 163.56 159.78 164.63 160Z" fill="#EFE094"/>
<path d="M100.89 485.25C98.8899 489.6 94.7499 498.25 92.7599 502.65C92.5275 503.337 92.0783 503.93 91.4799 504.34C90.7653 504.617 89.9763 504.634 89.2499 504.39L63.8199 499.08C68.2399 493.21 74.9399 483.15 79.3699 477.28L100.89 485.25Z" fill="#EFB4B4"/>
<path d="M274 477.28C276 481.16 280.24 489.53 282.5 493.28C275.382 497.392 268.747 502.29 262.72 507.88C262.32 508.25 261.72 508.65 261.28 508.36C261.084 508.216 260.934 508.018 260.85 507.79C258.15 502.19 253.32 492.03 250.61 486.43L274 477.28Z" fill="#EFB4B4"/>
<path d="M239.11 265.26C245.451 253.734 252.697 242.729 260.78 232.35C260.943 232.025 261.171 231.737 261.451 231.504C261.73 231.271 262.054 231.098 262.403 230.996C262.752 230.894 263.118 230.865 263.479 230.91C263.84 230.955 264.187 231.075 264.5 231.26C272.705 234.103 280.368 238.319 287.16 243.73C288.218 244.406 288.998 245.438 289.36 246.64C289.44 247.467 289.316 248.301 289 249.07C284.71 262.22 276 273.4 267.44 284.27C267.23 284.54 264.91 287.41 264.57 287.39" fill="white"/>
<path d="M241.7 266.77C245.7 259.523 250.033 252.483 254.7 245.65C257.033 242.277 259.443 238.943 261.93 235.65C262.501 235.071 263.01 234.434 263.45 233.75C263.66 233.23 263.56 233.75 263.52 233.69L263.17 233.77C262.67 233.82 262.7 233.89 263.25 233.96C263.727 234.155 264.215 234.326 264.71 234.47C266.47 235.11 268.2 235.81 269.9 236.59C273.433 238.223 276.84 240.118 280.09 242.26C281.65 243.26 283.19 244.37 284.66 245.53C285.15 245.92 286.16 246.53 286.37 247.09C286.37 247.09 286.37 246.98 286.37 247.01C286.46 247.35 286.1 248.1 285.99 248.43C283.62 255.64 279.75 262.27 275.47 268.5C273.05 272.03 270.47 275.45 267.84 278.83C266.84 280.11 265.84 281.41 264.84 282.66C264.46 283.13 264.06 283.6 263.66 284.05C263.45 284.29 263.23 284.51 263.03 284.74C262.51 285.32 263.38 284.53 263.76 284.44C260.01 285.36 261.6 291.15 265.35 290.23C266.65 289.91 267.58 288.68 268.41 287.71C269.24 286.74 270.08 285.71 270.89 284.62C273.62 281.14 276.34 277.62 278.89 274.05C284.092 267.076 288.287 259.404 291.35 251.26C292.18 248.93 292.87 246.54 291.6 244.26C290.6 242.34 288.6 241.06 286.88 239.78C283.355 237.128 279.608 234.786 275.68 232.78C273.68 231.78 271.68 230.84 269.57 229.98C267.46 229.12 265.17 227.91 262.94 227.9C260.13 227.9 258.68 230.1 257.15 232.09C255.783 233.87 254.45 235.667 253.15 237.48C247.063 245.871 241.502 254.631 236.5 263.71C234.63 267.09 239.81 270.13 241.68 266.71L241.7 266.77Z" fill="#0066FF"/>
<path d="M258.75 509.75L215.14 543.88C214.27 544.56 213.3 545.56 213.67 546.6C214.09 547.8 215.78 547.77 217.02 547.52L236.02 543.61C256.41 539.42 277.31 535.02 294.85 523.82C295.957 523.267 296.819 522.322 297.27 521.17C297.408 519.919 297.068 518.662 296.32 517.65C291.48 509.13 286.647 500.603 281.82 492.07" fill="#252626"/>
<path d="M234.1 260C232.33 268.85 238.65 277.89 245.53 283.26C252.41 288.63 262.27 292.66 270.85 290.49" fill="#EFE094"/>
<path d="M64.8 496.66L9.93003 489.14C8.84003 489 7.45003 489 7.00003 490C6.55003 491 7.63003 492.33 8.68003 493L24.7 504C41.9 515.71 59.61 527.65 79.87 532.43C81.0372 532.851 82.3209 532.812 83.46 532.32C84.4476 531.546 85.108 530.429 85.31 529.19C88.0634 519.783 90.8167 510.377 93.57 500.97" fill="#252626"/>
<path d="M179.2 20.32C182.82 9.92005 198.12 4.41005 201.65 2.62005C205.855 0.586866 210.522 -0.299695 215.18 0.0500463C220.069 0.435431 224.801 1.95569 229 4.49005C246.2 14.61 255.49 32.57 262.29 51.32C262.647 52.1492 262.847 53.0377 262.88 53.94C262.808 54.8898 262.535 55.8134 262.08 56.65C258.64 63.92 252.29 69.5 245.27 73.41C238.25 77.3201 233.9 77.41 224.82 78.67C229.82 66.79 226.97 56.19 221.1 44.72C217.1 36.85 204.96 23.02 193.93 18.43C188.86 16.34 179.2 20.32 179.2 20.32Z" fill="black"/>
<path d="M955 374C961.341 369.841 967.897 366.019 974.64 362.55C978.392 360.424 982.435 358.857 986.64 357.9C990.87 357.1 995.48 357.49 999.12 359.8C1004.01 362.91 1007.32 369.42 1006.35 375.13C1005.38 380.84 1003.85 383.05 1000.6 385.76C997.619 388.362 993.834 389.859 989.88 390C986.27 390 981.88 389.21 979.14 385.77C978.14 384.51 976.25 381.25 973.54 379.98C970.83 378.71 960.64 382.64 959.7 383.98" fill="#EFB4B4"/>
<path d="M791.06 256.49C789.87 249.07 791.89 236.17 793.06 234.85C797.11 231.32 807.39 237.45 815.14 236.65C822.89 235.85 822.05 231.72 826.9 225.65C829.9 221.88 836.6 228.65 837.46 223.9C838.46 218.27 834.72 203.82 836.55 198.45C838.2 193.62 843.55 184.73 839.4 175.79C835.19 166.7 818.07 157.79 807.72 155.37C786.87 150.55 769.12 175.06 763.29 195.65C761.972 200.093 761.57 204.757 762.11 209.36C762.93 215.52 766.49 220.83 770.5 225.58C770.98 226.15 771.2 230.43 770.36 235.3C769.69 239.18 765.55 253.42 767.03 255.1C768.51 256.78 791.68 260.34 791.06 256.49Z" fill="#EFB4B4"/>
<path d="M905.1 792.89L885.37 760.14L845.25 771.53L852.86 786.41C855.214 791.306 858.13 795.91 861.55 800.13C862.825 801.887 864.44 803.37 866.3 804.49C868.218 805.365 870.277 805.894 872.38 806.05C874.95 806.39 877.51 806.7 880.08 806.98C881.882 807.339 883.746 807.208 885.48 806.6C887.48 805.66 888.73 803.53 889.64 801.47C892.35 795.4 898.87 804.13 898.91 797.47" fill="#EFB4B4"/>
<path d="M474.94 765.57C472.94 772.13 469.94 787.92 467.86 794.48C467.668 795.872 467.722 797.287 468.02 798.66C468.29 800.43 469.48 804.77 470.92 805.84C475.48 809.2 481.06 808.52 486.62 809.6C489.583 810.306 492.674 810.272 495.62 809.5C499.52 808.31 500.13 803.78 502.16 800.25C504.19 796.72 507.38 792.82 508.47 788.89C509.05 786.79 511.54 779.55 512.12 777.46L474.94 765.57Z" fill="#EFB4B4"/>
<path d="M587.27 473.22C592.05 465.74 598.44 451.77 604.86 457.89C682.8 532.25 789.22 501.7 789.22 501.7C810.82 554.43 832.71 608.7 853.54 661.7C869.48 702.28 891.15 764.7 889.3 766.12C873.711 777.819 856.15 786.625 837.45 792.12C834.04 793.12 830.31 794 827.01 792.67C824.3 791.57 822.37 789.16 820.57 786.85C765 715.4 707.93 639.46 655.29 565.85L672.14 598C663 621.68 651 640.27 637.76 662.14C610.32 707.68 582.04 754.19 540.76 787.65C539.249 789.046 537.46 790.106 535.51 790.76C533.16 791.37 530.68 790.76 528.33 790.2C508.257 785.059 488.953 777.285 470.92 767.08C470.335 766.904 469.801 766.591 469.362 766.166C468.923 765.742 468.592 765.219 468.397 764.641C468.201 764.062 468.146 763.445 468.237 762.842C468.328 762.238 468.562 761.665 468.92 761.17C505.553 667.05 544.113 573.717 584.6 481.17L587.27 473.22Z" fill="#252626"/>
<path d="M898.77 782.79L976.44 759.2C977.99 758.73 980.01 758.4 980.95 759.72C982.03 761.24 980.58 763.24 979.22 764.51L958.5 784.06C936.31 805 913.43 826.37 885.22 838C883.55 838.69 881.67 839.34 880 838.68C878.33 838.02 877.37 836.22 876.59 834.57C870.43 821.59 864.267 808.61 858.1 795.63" fill="#252626"/>
<path d="M616.75 387.51C596.75 384.37 574.44 365.38 575.34 345.11C576.14 327.01 590.69 312.79 605.05 301.75C630.16 282.46 658.11 266.54 688.34 257.1C718.57 247.66 751.16 244.88 782.13 251.46C802.9 255.87 823.64 265.11 836.46 282.04C842.53 290.04 846.55 299.42 850.01 308.86C865.32 350.63 862.43 389.2 901.88 430.63L873.74 379.74C881.74 386.17 893.37 383.95 903.31 381.39L938.12 372.45C942.75 371.25 947.77 370.08 952.21 371.87C959.05 374.61 961.5 383.01 962.05 390.36C963.05 403.51 960.75 416.72 957.11 429.36C953.33 442.49 947.91 455.47 938.7 465.57C930.7 474.34 920.26 480.46 909.86 486.18C899.99 491.61 889.86 496.83 878.99 499.64C868.12 502.45 856.21 502.7 845.85 498.3C834.42 493.46 823.2 485.02 818.85 473.39C789.85 388.69 781.57 354.57 780.06 355.08C778.55 355.59 795.82 410.2 805 455C808 473.77 810.32 495.32 789.2 501.66C757.65 511.13 719.83 509.66 688.71 502.59C657.59 495.52 626.16 481.59 604.84 457.85C601.22 453.85 588.12 444.1 598.84 425.85C597.95 427.35 663.63 322.58 667.12 312.66C662.2 317.7 616.75 387.51 616.75 387.51Z" fill="#EFE094"/>
<path d="M582.57 518.47C577.718 501.715 574.204 484.601 572.06 467.29C571.906 466.833 571.848 466.349 571.891 465.868C571.933 465.388 572.074 464.921 572.305 464.497C572.536 464.074 572.852 463.703 573.233 463.407C573.614 463.112 574.052 462.898 574.52 462.78C584.879 457.752 596.018 454.526 607.46 453.24C609.1 453.05 610.9 452.95 612.25 453.9C613.095 454.603 613.761 455.498 614.19 456.51C622.49 472.87 624.8 491.51 626.97 509.74C627.03 510.18 628.19 520.44 627.86 520.74" fill="white"/>
<path d="M585.47 517.67C582.058 505.882 579.303 493.914 577.22 481.82C576.7 478.8 576.22 475.77 575.78 472.73C575.58 471.32 575.39 469.91 575.21 468.49C575.12 467.83 575.01 467.16 574.97 466.49C574.97 466.24 574.97 465.95 574.97 465.69C575.04 466.33 574.59 466.03 575.07 465.85C576.02 465.5 577.27 464.77 578.32 464.3C579.55 463.74 580.78 463.21 582.04 462.71C584.74 461.63 587.487 460.67 590.28 459.83C595.738 458.157 601.333 456.973 607 456.29C608.078 456.044 609.195 456.027 610.28 456.24C610.84 456.45 611.22 457.24 611.6 458.03C612.834 460.445 613.936 462.925 614.9 465.46C618.95 476.06 621.02 487.3 622.57 498.51C623.18 502.96 623.73 507.44 624.21 511.91C624.4 513.63 624.57 515.34 624.72 517.06C624.79 517.85 624.86 518.63 624.89 519.42C624.89 519.67 624.89 519.92 624.89 520.17C624.885 520.257 624.885 520.343 624.89 520.43C624.89 520.67 625.11 519.43 625.25 519.22C625.05 519.56 624.919 519.936 624.864 520.327C624.81 520.718 624.833 521.115 624.932 521.497C625.032 521.879 625.206 522.237 625.444 522.552C625.682 522.866 625.98 523.131 626.32 523.33C627.012 523.715 627.826 523.817 628.592 523.616C629.358 523.415 630.016 522.925 630.43 522.25C631.17 521.16 630.89 519.46 630.8 518.25C630.67 516.59 630.51 514.94 630.34 513.25C629.94 509.4 629.46 505.55 628.97 501.7C627.41 489.46 625.48 477.16 621.28 465.51C620.21 462.51 619 459.63 617.65 456.78C616.3 453.93 614.89 451.21 611.65 450.38C608.65 449.61 605.25 450.44 602.29 450.91C599.33 451.38 596.11 452.02 593.07 452.79C586.889 454.377 580.865 456.519 575.07 459.19C572.07 460.54 569.16 461.99 568.96 465.67C568.973 467.174 569.127 468.674 569.42 470.15C569.66 472.02 569.92 473.88 570.2 475.75C572.379 490.446 575.542 504.979 579.67 519.25C580.74 522.95 586.53 521.37 585.46 517.65L585.47 517.67Z" fill="#0066FF"/>
<path d="M695.68 535.2C702.06 543.2 711.74 547.77 721.44 550.97C728.72 553.38 736.31 555.16 743.98 554.97C751.65 554.78 759.45 552.53 765.31 547.58L695.68 535.2Z" fill="#EFE094"/>
<path d="M570.81 510.85C574.44 517.63 581.18 522.37 588.44 524.91C595.7 527.45 603.51 528 611.2 528C620.82 528 630.94 527 638.9 521.64L570.81 510.85Z" fill="#EFE094"/>
<path d="M507.56 799L577.7 830C579.1 830.62 580.7 831.63 580.61 833.15C580.44 834.9 578.17 835.44 576.41 835.52L549.53 836.72C520.73 838.02 491.17 839.21 463.82 830.11C462.2 829.58 460.45 828.89 459.66 827.38C458.87 825.87 459.3 824 459.75 822.38C463.35 809.287 466.947 796.197 470.54 783.11" fill="#252626"/>
<path d="M503.132 21.7257C503.336 37.8475 503.481 53.97 503.565 70.0932C503.65 86.2164 503.662 102.339 503.601 118.462C503.57 127.532 503.518 136.603 503.446 145.674C503.428 147.603 504.882 149.569 507.071 149.626C509.072 149.684 511.191 148.287 511.211 146.217C511.339 130.099 511.4 113.979 511.394 97.8561C511.387 81.7334 511.318 65.6113 511.186 49.4897C511.108 40.4173 511.011 31.3436 510.897 22.2687C510.868 20.3438 509.483 18.3834 507.272 18.3175C505.293 18.2679 503.104 19.6605 503.132 21.7257Z" fill="#0066FF"/>
<path d="M504.713 24.4789C513.516 34.0676 522.479 43.5173 531.603 52.8277C534.195 55.4742 536.801 58.0896 539.419 60.6737L539.782 55.4852C521.467 67.3242 504.118 78.2988 485.71 89.6802C480.523 92.8821 475.332 96.0714 470.137 99.2481C468.434 100.283 467.286 102.295 468.387 104.184C469.314 105.773 471.788 106.988 473.606 105.873C492.327 94.4471 510.922 82.8372 529.392 71.0437C534.571 67.7327 539.746 64.3968 544.918 61.0361C546.594 59.9478 546.61 57.1534 545.282 55.8329C536.157 46.7639 527.215 37.5351 518.455 28.1466C515.823 25.3199 513.199 22.4839 510.584 19.6386C509.899 18.9171 508.944 18.4776 507.925 18.4148C506.907 18.352 505.906 18.6709 505.138 19.3028C504.371 19.9347 503.898 20.8291 503.821 21.7933C503.745 22.7575 504.071 23.7144 504.73 24.4579L504.713 24.4789Z" fill="#0066FF"/>
<path d="M473.105 58.6792C482.136 66.1293 491.602 73.1366 500.899 80.243C505.803 83.9731 510.691 87.7316 515.502 91.5661C517.892 93.4737 520.257 95.3967 522.598 97.3353L524.213 98.6833C524.544 98.9653 524.124 98.6105 524.079 98.5778L524.573 98.9895L525.547 99.7972C526.673 100.763 527.799 101.737 528.909 102.717C533.709 106.924 538.274 111.366 542.586 116.024L542.95 110.821C534.053 119.879 523.469 127.052 513.801 135.31C510.873 137.832 508.058 140.477 505.357 143.247C503.973 144.629 503.433 146.891 504.993 148.45C506.321 149.778 509.005 150.335 510.483 148.834C519.373 139.775 529.964 132.595 539.625 124.336C542.554 121.834 545.383 119.215 548.071 116.474C549.5 115.021 549.936 112.907 548.435 111.271C540.395 102.492 531.242 94.6784 521.912 87.1629C512.353 79.4687 502.48 72.1298 492.718 64.6654C487.57 60.726 482.456 56.752 477.461 52.6384C475.919 51.3621 473.071 52.0356 472.057 53.5843C470.842 55.4444 471.45 57.3579 473.103 58.716L473.105 58.6792Z" fill="#0066FF"/>
<path d="M558.713 74.8022C559.218 75.7176 559.621 76.6628 560.076 77.6264C560.257 78.0459 559.885 77.014 560.071 77.6927C560.161 77.9726 560.251 78.2525 560.333 78.5318C560.471 79.0074 560.602 79.4825 560.709 79.9633C560.935 80.9701 561.059 81.9846 561.19 83.0069C561.251 83.4771 561.176 82.3182 561.187 83.0511C561.17 83.294 561.207 83.5406 561.213 83.7925C561.222 84.333 561.216 84.865 561.187 85.4028C561.142 86.3871 561.034 87.3675 560.864 88.3385C560.854 88.4857 560.706 89.4812 560.851 88.5225C560.834 88.7653 560.74 89.0028 560.683 89.2503C560.557 89.7221 560.422 90.1935 560.272 90.6637C559.953 91.6456 559.568 92.6068 559.119 93.5413C559.037 93.7056 558.769 94.5373 559.035 93.7424C558.956 93.9222 558.858 94.0938 558.742 94.2544C558.441 94.7658 558.124 95.2688 557.786 95.7628C557.456 96.1599 557.217 96.6176 557.083 97.1076C556.95 97.5975 556.924 98.1091 557.008 98.6104C557.092 99.1117 557.284 99.592 557.572 100.021C557.86 100.45 558.238 100.82 558.682 101.105C559.126 101.391 559.626 101.587 560.152 101.682C560.678 101.777 561.218 101.768 561.739 101.656C562.26 101.544 562.749 101.331 563.178 101.031C563.606 100.731 563.964 100.35 564.23 99.9112C567.058 95.7344 568.68 90.9208 568.934 85.948C569.189 80.9751 568.068 76.0158 565.681 71.5621C565.183 70.7548 564.383 70.1539 563.44 69.8804C562.498 69.6069 561.485 69.6809 560.603 70.0877C559.721 70.4945 559.037 71.2039 558.689 72.0731C558.34 72.9424 558.352 73.9071 558.723 74.7733L558.713 74.8022Z" fill="#0066FF"/>
<path d="M575.494 50.6456C576.213 51.5241 576.931 52.4174 577.647 53.3402L578.153 54.0264C578.722 54.8057 577.707 53.3666 578.252 54.1664C578.619 54.7172 578.956 55.2584 579.346 55.8182C580.569 57.7238 581.682 59.6902 582.68 61.7089C583.179 62.72 583.654 63.7368 584.097 64.7662C584.319 65.2772 584.532 65.8023 584.77 66.2924C584.869 66.5581 584.976 66.817 585.076 67.0533L585.273 67.5848C585.103 67.1143 585.09 67.0765 585.227 67.4632C585.968 69.5858 586.622 71.7244 587.118 73.9038C587.662 76.1689 588.078 78.4593 588.362 80.7651C588.52 81.7778 588.623 82.797 588.672 83.8189C588.657 82.8047 588.676 83.7527 588.663 83.944C588.649 84.1354 588.694 84.5009 588.706 84.7753C588.731 85.4279 588.756 86.073 588.765 86.7245C588.797 88.9454 588.705 91.1576 588.504 93.3622C588.426 94.4735 588.264 95.5641 588.1 96.6767C588.015 97.2255 587.922 97.7736 587.829 98.3218L587.678 99.1395C587.664 99.3456 587.397 100.599 587.604 99.5337C586.574 104.547 584.836 109.4 582.436 113.963C581.534 115.697 582.979 118.143 584.829 118.679C587.055 119.323 588.828 118.3 589.785 116.444C594.181 107.784 596.487 98.2904 596.535 88.6508C596.631 78.7839 594.531 68.9931 590.374 59.9173C588.026 54.8579 585.005 50.1006 581.384 45.7622C580.704 45.0215 579.744 44.5649 578.714 44.4929C577.685 44.4209 576.67 44.7394 575.894 45.3783C575.141 46.0309 574.683 46.9348 574.615 47.9032C574.547 48.8716 574.875 49.8305 575.53 50.5815L575.494 50.6456Z" fill="#0066FF"/>
<path d="M802.5 220.28C795.67 226.92 775.71 232.72 772.15 231.51C765.3 229.19 757.75 212.01 759.29 196.66C761.01 179.39 766.29 166.09 777.94 156.66C791.23 145.97 818.02 152.03 824.53 155.85C830.31 159.23 838.09 165.4 840.15 177.67C840.28 178.45 831.49 181.53 827.69 181.28C827.229 187.8 825.761 194.209 823.34 200.28C822.9 201.34 822.28 202.48 821.56 202.21C820.84 201.94 820.56 200.79 820.32 199.74L818.32 191.84C814.86 206.81 808.5 214.44 802.5 220.28Z" fill="black"/>
<path opacity="0.5" d="M360.591 323.231C360.721 323.875 360.842 324.517 360.954 325.157C361.017 325.507 361.075 325.862 361.128 326.202L361.191 326.619C361.191 326.719 361.317 327.434 361.191 326.76C361.38 328.04 361.485 329.34 361.554 330.629C361.622 331.919 361.638 333.115 361.596 334.363C361.615 335.573 361.519 336.783 361.307 337.976C361.307 337.908 361.396 337.365 361.307 337.84C361.307 337.965 361.27 338.091 361.249 338.216C361.2 338.522 361.147 338.83 361.091 339.14C360.986 339.725 360.86 340.304 360.723 340.884C360.448 342.041 360.113 343.182 359.718 344.304C359.534 344.826 359.329 345.374 359.119 345.896C359.056 346.043 358.898 346.476 359.119 345.896C359.072 346.017 359.019 346.131 358.966 346.246C358.835 346.539 358.703 346.831 358.567 347.123C358.03 348.248 357.441 349.344 356.8 350.413C356.132 351.53 355.411 352.611 354.644 353.666L354.076 354.433C353.992 354.538 353.692 354.924 354.028 354.496C353.939 354.611 353.85 354.726 353.755 354.835C353.303 355.404 352.84 355.963 352.361 356.511C350.841 358.282 349.195 359.942 347.434 361.477C347.008 361.842 346.577 362.203 346.14 362.552L345.867 362.766C345.504 363.054 345.94 362.72 345.982 362.678C345.742 362.888 345.485 363.078 345.214 363.247C344.357 363.868 343.479 364.453 342.585 365.001C341.691 365.549 340.713 366.077 339.745 366.568C339.288 366.797 338.82 367.017 338.352 367.226C338.106 367.376 337.84 367.492 337.563 367.57C337.605 367.57 338.152 367.33 337.71 367.507L337.226 367.701C334.869 368.619 332.447 369.362 329.98 369.925C328.618 370.243 327.245 370.515 325.872 370.755C325.168 370.875 324.458 370.985 323.769 371.089L322.717 371.241H322.68L321.939 371.335C320.577 371.502 319.241 372.415 319.309 373.945C319.367 375.214 320.477 376.739 321.939 376.556C327.124 375.909 332.304 375.016 337.232 373.256C341.801 371.632 346.066 369.264 349.853 366.249C353.948 362.933 357.496 359.003 360.371 354.6C363.257 350.29 365.237 345.445 366.192 340.357C367.291 334.18 366.86 327.961 365.614 321.842C365.522 321.511 365.365 321.202 365.153 320.932C364.941 320.661 364.677 320.435 364.377 320.266C364.076 320.096 363.745 319.988 363.403 319.945C363.06 319.903 362.712 319.928 362.379 320.02C361.716 320.218 361.156 320.662 360.814 321.26C360.472 321.858 360.375 322.564 360.544 323.231H360.591Z" fill="#0066FF"/>
<path opacity="0.5" d="M382.715 316.171C383.294 318.281 383.778 320.409 384.167 322.557C384.255 323.058 384.339 323.56 384.419 324.061C384.461 324.327 384.503 324.583 384.54 324.87C384.54 325.022 384.582 325.178 384.609 325.335C384.745 326.421 384.859 327.507 384.95 328.593C385.316 332.939 385.267 337.31 384.803 341.646C384.777 341.881 384.751 342.111 384.719 342.341C384.687 342.57 384.682 342.649 384.666 342.805V342.92V343.035C384.666 343.192 384.624 343.343 384.598 343.5C384.556 343.808 384.509 344.111 384.456 344.419C384.283 345.494 384.077 346.565 383.851 347.625C383.391 349.754 382.819 351.857 382.137 353.927C381.795 354.971 381.427 355.989 381.027 357.002C380.864 357.425 380.691 357.848 380.501 358.266L380.57 358.104C380.522 358.229 380.465 358.349 380.412 358.469L380.128 359.106C379.357 360.809 378.505 362.469 377.572 364.088C376.64 365.706 375.632 367.273 374.548 368.787C374.275 369.168 374.023 369.544 373.723 369.92L373.36 370.395C373.307 370.463 373.039 370.802 373.255 370.531L373.155 370.656C372.571 371.387 371.977 372.107 371.362 372.807C370.131 374.199 368.832 375.541 367.465 376.833C366.786 377.47 366.087 378.086 365.361 378.692C365.03 378.968 364.699 379.245 364.357 379.516L363.831 379.95C363.757 380.016 363.678 380.078 363.594 380.133C364.089 379.851 363.694 380.06 363.594 380.133C360.619 382.389 357.404 384.315 354.007 385.876C353.613 386.059 353.218 386.231 352.819 386.398C352.74 386.43 352.409 386.565 352.819 386.398L352.482 386.539L351.583 386.905C350.531 387.322 349.479 387.724 348.428 388.111C346.401 388.856 344.352 389.538 342.28 390.158C338.144 391.388 333.927 392.334 329.659 392.988L328.854 393.108C328.681 393.108 327.992 393.222 328.518 393.155L326.908 393.353C325.825 393.473 324.737 393.578 323.653 393.666C321.444 393.837 319.234 393.933 317.022 393.953C315.891 393.953 314.766 393.953 313.635 393.953C312.938 393.953 312.269 394.228 311.776 394.718C311.283 395.208 311.006 395.872 311.006 396.564C311.02 397.252 311.302 397.907 311.792 398.394C312.282 398.88 312.942 399.16 313.635 399.175C322.752 399.384 331.853 398.329 340.676 396.042C345.059 394.885 349.359 393.441 353.55 391.719C357.3 390.23 360.88 388.35 364.231 386.111C370.812 381.591 376.411 375.805 380.696 369.095C385.248 361.935 388.273 353.924 389.583 345.557C391.032 336.368 390.711 326.99 388.637 317.921C388.395 316.876 388.129 315.818 387.838 314.746C387.746 314.416 387.589 314.106 387.377 313.836C387.165 313.565 386.901 313.339 386.601 313.17C386.3 313.001 385.969 312.892 385.627 312.85C385.284 312.807 384.936 312.833 384.603 312.924C384.27 313.015 383.959 313.17 383.687 313.381C383.414 313.592 383.186 313.854 383.016 314.152C382.845 314.45 382.736 314.779 382.693 315.119C382.651 315.459 382.676 315.804 382.768 316.135L382.715 316.171Z" fill="#0066FF"/>
<path opacity="0.5" d="M406.785 312.313C407.153 314.271 407.479 316.239 407.748 318.213C407.674 317.644 407.779 318.458 407.784 318.511L407.879 319.252C407.942 319.743 407.995 320.239 408.053 320.735C408.158 321.727 408.252 322.719 408.337 323.711C408.659 327.599 408.789 331.499 408.726 335.412C408.658 339.4 408.388 343.382 407.916 347.343C407.868 347.755 407.816 348.168 407.763 348.575C407.763 348.627 407.648 349.442 407.726 348.873C407.69 349.118 407.658 349.363 407.621 349.614C407.479 350.596 407.322 351.582 407.153 352.564C406.803 354.531 406.417 356.487 405.996 358.433C405.211 361.994 404.214 365.505 403.009 368.949C402.715 369.777 402.408 370.6 402.089 371.418C401.921 371.846 401.747 372.269 401.563 372.692C401.379 373.115 401.521 372.797 401.563 372.692C401.442 372.974 401.321 373.251 401.195 373.533C400.448 375.198 399.617 376.838 398.723 378.425C397.826 380.021 396.838 381.563 395.763 383.046C396.01 382.712 395.678 383.151 395.621 383.229L395.221 383.751C394.911 384.148 394.59 384.545 394.274 384.936C393.647 385.709 393.012 386.473 392.371 387.228C389.962 390.069 387.427 392.805 384.756 395.405C382.383 397.719 379.892 399.911 377.293 401.973C376.978 402.224 376.662 402.495 376.342 402.715L376.236 402.793L375.763 403.148C375.137 403.618 374.501 404.072 373.865 404.521C372.624 405.392 371.358 406.229 370.068 407.033C367.682 408.519 365.213 409.87 362.674 411.079C362.101 411.351 361.527 411.601 360.954 411.873C360.639 412.014 360.328 412.15 360.013 412.28L359.86 412.348L360.018 412.28C359.799 412.337 359.589 412.423 359.392 412.536C358.214 413.016 357.021 413.46 355.822 413.878C353.398 414.704 350.931 415.401 348.433 415.966C347.223 416.243 346.003 416.489 344.783 416.697C344.231 416.797 343.674 416.885 343.121 416.969L342.217 417.105L341.917 417.141C342.795 417.006 342.054 417.141 341.865 417.141C337.243 417.707 332.583 417.913 327.929 417.757C323.522 417.632 319.125 417.235 314.75 416.713L313.283 416.53L312.489 416.426C311.963 416.358 313.178 416.52 312.657 416.426L312.131 416.358C311.132 416.222 310.138 416.081 309.139 415.935C307.125 415.648 305.11 415.345 303.091 415.053C302.16 414.917 301.229 414.781 300.299 414.656C299.613 414.494 298.891 414.587 298.269 414.917C297.681 415.268 297.25 415.828 297.064 416.483C296.78 417.71 297.443 419.491 298.9 419.694C307.519 420.885 316.107 422.357 324.805 422.827C334.597 423.381 344.531 422.655 353.97 419.909C365.629 416.52 376.121 410.186 385.14 402.156C387.806 399.78 390.341 397.264 392.76 394.643C395.559 391.69 398.167 388.565 400.569 385.286C404.939 379.114 407.826 371.956 409.83 364.714C414.064 349.114 415.087 332.826 412.838 316.824C412.565 314.85 412.242 312.884 411.87 310.924C411.618 309.577 409.909 308.689 408.636 309.102C407.974 309.301 407.414 309.746 407.072 310.343C406.731 310.941 406.634 311.646 406.801 312.313H406.785Z" fill="#0066FF"/>
<path opacity="0.5" d="M516.877 502.774C516.61 501.958 516.355 501.144 516.111 500.331C515.976 499.887 515.846 499.435 515.725 499.003L515.579 498.471C515.563 498.342 515.29 497.434 515.557 498.288C515.114 496.658 514.774 494.988 514.482 493.325C514.19 491.663 513.979 490.114 513.834 488.489C513.616 486.921 513.546 485.336 513.624 483.756C513.635 483.845 513.608 484.563 513.646 483.933C513.626 483.77 513.652 483.602 513.659 483.436C513.672 483.031 513.689 482.623 513.711 482.212C513.751 481.438 513.818 480.666 513.899 479.893C514.061 478.35 514.303 476.817 514.623 475.301C514.773 474.595 514.945 473.852 515.128 473.142C515.184 472.942 515.314 472.355 515.128 473.142C515.168 472.978 515.216 472.821 515.265 472.664C515.384 472.264 515.504 471.865 515.63 471.464C516.129 469.922 516.699 468.408 517.34 466.923C518.006 465.369 518.744 463.855 519.547 462.368L520.142 461.284C520.232 461.136 520.55 460.588 520.192 461.196C520.287 461.033 520.382 460.87 520.484 460.713C520.965 459.904 521.461 459.108 521.978 458.322C523.617 455.789 525.435 453.381 527.416 451.116C527.896 450.576 528.384 450.041 528.88 449.52L529.191 449.2C529.604 448.771 529.106 449.272 529.059 449.333C529.329 449.023 529.624 448.736 529.939 448.475C530.924 447.536 531.941 446.641 532.983 445.791C534.026 444.941 535.178 444.105 536.323 443.319C536.865 442.949 537.422 442.592 537.98 442.249C538.267 442.016 538.584 441.824 538.922 441.679C538.869 441.686 538.216 442.082 538.746 441.783L539.327 441.458C542.16 439.901 545.103 438.561 548.133 437.448C549.803 436.823 551.495 436.258 553.192 435.733C554.063 435.468 554.943 435.215 555.798 434.973L557.103 434.613L557.149 434.608L558.072 434.371C559.767 433.943 561.31 432.55 560.979 430.576C560.704 428.939 559.059 427.133 557.24 427.597C550.789 429.242 544.384 431.204 538.435 434.252C532.918 437.068 527.904 440.802 523.598 445.3C518.95 450.238 515.091 455.887 512.159 462.044C509.197 468.084 507.466 474.676 507.069 481.426C506.664 489.61 508.2 497.61 510.75 505.355C510.918 505.769 511.166 506.146 511.477 506.464C511.788 506.782 512.158 507.035 512.564 507.208C512.971 507.381 513.407 507.47 513.846 507.472C514.286 507.474 514.722 507.387 515.128 507.217C515.935 506.857 516.573 506.194 516.909 505.365C517.246 504.536 517.256 503.605 516.936 502.766L516.877 502.774Z" fill="#0066FF"/>
<path opacity="0.5" d="M490.036 515.365C488.969 512.718 488.018 510.032 487.184 507.306C486.994 506.67 486.808 506.033 486.626 505.395C486.53 505.056 486.436 504.731 486.344 504.364C486.32 504.167 486.242 503.971 486.183 503.772C485.838 502.384 485.521 500.993 485.232 499.598C484.078 494.017 483.444 488.339 483.339 482.641C483.335 482.332 483.332 482.03 483.335 481.727C483.338 481.424 483.333 481.322 483.328 481.116L483.309 480.967L483.291 480.818C483.266 480.615 483.295 480.412 483.303 480.205C483.307 479.799 483.319 479.399 483.336 478.991C483.385 477.568 483.473 476.148 483.59 474.738C483.833 471.905 484.221 469.087 484.753 466.296C485.019 464.889 485.322 463.511 485.666 462.135C485.805 461.561 485.957 460.985 486.13 460.414L486.069 460.634C486.109 460.464 486.163 460.3 486.21 460.136L486.468 459.265C487.171 456.937 487.984 454.651 488.905 452.407C489.826 450.162 490.85 447.974 491.978 445.841C492.263 445.304 492.523 444.777 492.842 444.243L493.225 443.571C493.28 443.474 493.565 442.992 493.336 443.378L493.442 443.2C494.064 442.161 494.7 441.134 495.366 440.131C496.7 438.134 498.128 436.191 499.651 434.304C500.407 433.372 501.193 432.464 502.014 431.566C502.388 431.156 502.763 430.745 503.152 430.34L503.747 429.696C503.831 429.598 503.921 429.507 504.017 429.422C503.438 429.865 503.903 429.533 504.017 429.422C507.419 426.034 511.175 423.037 515.221 420.484C515.69 420.185 516.161 419.901 516.64 419.622C516.734 419.569 517.132 419.341 516.64 419.622L517.043 419.387L518.121 418.773C519.384 418.068 520.649 417.383 521.917 416.719C524.36 415.438 526.842 414.235 529.362 413.109C534.394 410.871 539.574 408.989 544.865 407.479L545.862 407.199C546.082 407.172 546.934 406.916 546.28 407.085L548.283 406.578C549.633 406.254 550.992 405.95 552.348 405.667C555.112 405.103 557.891 404.635 560.684 404.265C562.113 404.089 563.536 403.915 564.965 403.739C565.846 403.631 566.648 403.17 567.193 402.459C567.739 401.747 567.983 400.843 567.873 399.944C567.744 399.054 567.284 398.248 566.587 397.693C565.89 397.138 565.011 396.877 564.133 396.966C552.577 398.11 541.24 400.89 530.452 405.227C525.097 407.408 519.891 409.949 514.868 412.833C510.366 415.347 506.139 418.341 502.261 421.765C494.662 428.65 488.506 437.026 484.159 446.396C479.546 456.391 476.998 467.253 476.674 478.31C476.306 490.455 478.206 502.571 482.273 514.015C482.745 515.332 483.25 516.664 483.789 518.009C483.957 518.424 484.205 518.801 484.516 519.119C484.827 519.436 485.197 519.689 485.603 519.862C486.01 520.035 486.446 520.125 486.885 520.126C487.325 520.128 487.761 520.041 488.167 519.871C488.573 519.701 488.942 519.451 489.253 519.136C489.564 518.82 489.81 518.445 489.978 518.032C490.146 517.618 490.232 517.175 490.232 516.727C490.231 516.279 490.144 515.835 489.975 515.421L490.036 515.365Z" fill="#0066FF"/>
<path opacity="0.5" d="M460.226 524.106C459.449 521.624 458.723 519.121 458.07 516.602C458.254 517.329 457.991 516.288 457.976 516.221L457.738 515.274C457.58 514.647 457.435 514.012 457.283 513.378C456.992 512.107 456.714 510.835 456.45 509.561C455.423 504.567 454.638 499.527 454.094 494.442C453.544 489.258 453.252 484.05 453.217 478.839C453.212 478.296 453.212 477.753 453.214 477.216C453.206 477.149 453.222 476.074 453.213 476.825C453.22 476.501 453.221 476.177 453.228 475.846C453.251 474.551 453.293 473.246 453.35 471.947C453.479 469.341 453.655 466.743 453.877 464.154C454.302 459.413 455.004 454.702 455.978 450.048C456.218 448.928 456.475 447.812 456.748 446.702C456.892 446.12 457.044 445.545 457.21 444.967C457.375 444.39 457.246 444.825 457.21 444.967C457.317 444.583 457.426 444.205 457.541 443.82C458.22 441.543 459.009 439.287 459.886 437.089C460.765 434.881 461.769 432.726 462.892 430.635C462.633 431.107 462.982 430.487 463.043 430.376L463.465 429.637C463.794 429.074 464.136 428.509 464.472 427.952C465.142 426.853 465.823 425.763 466.514 424.683C469.106 420.625 471.874 416.682 474.836 412.894C477.468 409.524 480.267 406.293 483.223 403.215C483.581 402.841 483.937 402.44 484.308 402.105L484.428 401.988L484.97 401.454C485.686 400.747 486.418 400.059 487.151 399.377C488.581 398.056 490.047 396.773 491.55 395.53C494.329 393.232 497.234 391.096 500.251 389.133C500.933 388.692 501.617 388.278 502.299 387.837C502.675 387.605 503.046 387.381 503.424 387.162L503.606 387.051L503.417 387.163C503.685 387.055 503.937 386.911 504.167 386.734C505.58 385.928 507.018 385.167 508.467 384.439C511.399 382.991 514.406 381.704 517.474 380.583C518.959 380.036 520.462 379.528 521.97 379.068C522.653 378.854 523.343 378.652 524.028 378.458L525.149 378.142L525.523 378.048C524.434 378.36 525.35 378.069 525.589 378.039C531.341 376.589 537.198 375.598 543.106 375.077C548.696 374.556 554.317 374.388 559.93 374.387L561.814 374.396L562.835 374.408C563.51 374.415 561.949 374.393 562.622 374.434L563.297 374.441C564.582 374.462 565.861 374.49 567.147 374.525C569.739 374.585 572.333 374.665 574.932 374.731C576.13 374.763 577.328 374.794 578.525 374.813C579.418 374.916 580.315 374.683 581.049 374.159C581.736 373.613 582.191 372.819 582.322 371.94C582.485 370.304 581.364 368.097 579.49 368.059C568.406 367.852 557.316 367.275 546.247 368.015C533.782 368.817 521.341 371.3 509.846 376.328C495.649 382.534 483.397 392.378 473.276 404.196C470.284 407.691 467.481 411.35 464.841 415.125C461.773 419.39 458.974 423.849 456.46 428.476C451.919 437.16 449.41 446.895 448.031 456.6C445.164 477.495 446.465 498.784 451.857 519.194C452.517 521.712 453.238 524.213 454.02 526.697C454.553 528.406 456.855 529.292 458.398 528.559C459.204 528.198 459.84 527.535 460.177 526.706C460.514 525.878 460.524 524.948 460.206 524.109L460.226 524.106Z" fill="#0066FF"/>
</g>
<defs>
<clipPath id="clip0">
<rect width="1006.55" height="838.93" fill="white"/>
</clipPath>
</defs>
</svg>
