<svg id="Ebene_1" data-name="Ebene 1" xmlns="http://www.w3.org/2000/svg" viewBox="0 0 512 512"><defs><style>.cls-1{fill:#2c2c2c;}.cls-2{fill:#f2f6fe;}</style></defs><circle class="cls-1" cx="256" cy="256" r="256"/><path class="cls-2" d="M57.83,294.92a46.83,46.83,0,0,1,2.82-16.35,38.21,38.21,0,0,1,21.06-22.44,42.61,42.61,0,0,1,17.34-3.34,55.91,55.91,0,0,1,11.7,1.13,57.65,57.65,0,0,1,10.35,3.28l-4.71,18.09a56.26,56.26,0,0,0-7-2.12,36.56,36.56,0,0,0-8.52-.91q-10,0-15,6.23t-5,16.43q0,10.8,4.65,16.73t16.19,5.92a54.23,54.23,0,0,0,8.83-.76,37.31,37.31,0,0,0,8.67-2.43l3.19,18.56a53.79,53.79,0,0,1-9.89,2.88A64.5,64.5,0,0,1,99.5,337a49.43,49.43,0,0,1-18.86-3.26,35.59,35.59,0,0,1-13-8.9,34.64,34.64,0,0,1-7.45-13.31A56.54,56.54,0,0,1,57.83,294.92Z"/><path class="cls-2" d="M208.71,294.76A52.07,52.07,0,0,1,206,312a37.63,37.63,0,0,1-7.91,13.39,35.66,35.66,0,0,1-12.4,8.6,44.39,44.39,0,0,1-32.24,0,35.66,35.66,0,0,1-12.4-8.6A39.28,39.28,0,0,1,133,312a49.15,49.15,0,0,1-2.9-17.26,47.91,47.91,0,0,1,3-17.18,39,39,0,0,1,8.21-13.23,37,37,0,0,1,12.47-8.53,42.81,42.81,0,0,1,31.64,0,36.12,36.12,0,0,1,12.39,8.53,38.59,38.59,0,0,1,8.07,13.23A49,49,0,0,1,208.71,294.76Zm-23.12,0q0-10.5-4.19-16.5c-2.78-4-6.76-6-11.93-6a13.86,13.86,0,0,0-12,6q-4.26,6-4.26,16.5t4.26,16.66a13.76,13.76,0,0,0,12,6.15,13.53,13.53,0,0,0,11.93-6.15Q185.58,305.26,185.59,294.76Z"/><path class="cls-2" d="M296.76,332.33q-3,.92-7,1.75t-8.28,1.44c-2.89.41-5.84.74-8.83,1s-5.85.38-8.59.38A50.44,50.44,0,0,1,246.42,334a34.69,34.69,0,0,1-21.21-21.37,49.66,49.66,0,0,1-2.82-17.27,59.11,59.11,0,0,1,2.43-17.56,38.16,38.16,0,0,1,7-13.31A29.89,29.89,0,0,1,243,256.13a37.56,37.56,0,0,1,15.13-2.89,36,36,0,0,1,8.44.91,46.36,46.36,0,0,1,7.53,2.59V195.2l22.66-3.66Zm-51.26-38q0,10.49,4.72,16.88t14,6.38c2,0,3.91-.07,5.63-.22s3.14-.33,4.26-.54V275.6a19.83,19.83,0,0,0-5.55-2.28,26.69,26.69,0,0,0-6.92-.92Q245.51,272.4,245.5,294.31Z"/><path class="cls-2" d="M346.8,252.79a52.55,52.55,0,0,1,16.73,2.28,26,26,0,0,1,10.72,6.53A24.13,24.13,0,0,1,380,272a51.28,51.28,0,0,1,1.67,13.54v47.14q-4.86,1.06-13.54,2.51a130.43,130.43,0,0,1-21,1.45A66.58,66.58,0,0,1,333,335.22a30.46,30.46,0,0,1-10.88-4.49,20.46,20.46,0,0,1-7-8.14,28.08,28.08,0,0,1-2.43-12.31,23.33,23.33,0,0,1,2.82-11.87,21.68,21.68,0,0,1,7.52-7.76,34.24,34.24,0,0,1,10.8-4.17,60.65,60.65,0,0,1,12.63-1.3,72.49,72.49,0,0,1,7.83.38,35.1,35.1,0,0,1,5.55,1v-2.13a12.53,12.53,0,0,0-3.5-9.27q-3.5-3.51-12.17-3.51a78.46,78.46,0,0,0-11.4.84,49.5,49.5,0,0,0-9.74,2.36l-2.89-18.25q2-.61,4.95-1.3c2-.45,4.12-.86,6.46-1.21s4.79-.66,7.38-.92S344.16,252.79,346.8,252.79Zm1.82,66.31q3.35,0,6.39-.15a47.43,47.43,0,0,0,4.87-.46V301.3c-.91-.2-2.28-.4-4.11-.61a46.17,46.17,0,0,0-5-.3,45.58,45.58,0,0,0-6,.38,16,16,0,0,0-4.93,1.44,8.55,8.55,0,0,0-3.35,2.89,8.08,8.08,0,0,0-1.22,4.57c0,3.55,1.19,6,3.58,7.37S344.47,319.1,348.62,319.1Z"/><path class="cls-2" d="M450.37,275q-3-.76-7.15-1.6a44.79,44.79,0,0,0-8.82-.83,41.85,41.85,0,0,0-5.1.38,30.2,30.2,0,0,0-4.48.83v61.14H402.16V259.17a139.06,139.06,0,0,1,14.37-4,83.31,83.31,0,0,1,18.48-1.9c1.21,0,2.69.08,4.41.23s3.44.36,5.17.61,3.45.56,5.17.91a25.27,25.27,0,0,1,4.41,1.29Z"/><path class="cls-2" d="M285.78,146.22c-36.27,0-65.61,22.66-65.61,22.66l2.58,22.66s29.18-22.66,63-22.66,63,22.66,63,22.66l2.59-22.66S322,146.22,285.78,146.22Z"/><path class="cls-2" d="M285.78,99c-72.27,0-108.25,41.65-108.25,41.65l2.4,22.66s41.86-41.65,105.85-41.65,105.84,41.65,105.84,41.65L394,140.61S358.05,99,285.78,99Z"/></svg>