<?xml version="1.0" encoding="UTF-8"?>
<svg width="398px" height="239px" viewBox="0 0 398 239" version="1.1" xmlns="http://www.w3.org/2000/svg" xmlns:xlink="http://www.w3.org/1999/xlink">
    <!-- Generator: Sketch 51.3 (57544) - http://www.bohemiancoding.com/sketch -->
    <title>Logo-circle</title>
    <desc>Created with Sketch.</desc>
    <defs></defs>
    <g id="Page-1" stroke="none" stroke-width="1" fill="none" fill-rule="evenodd">
        <g id="Logo-circle" fill="#000000" fill-rule="nonzero">
            <path d="M0.83,195.92 C0.78937157,190.345596 1.7443564,184.808716 3.65,179.57 C7.21428881,169.468712 14.8549449,161.327387 24.71,157.13 C30.1933576,154.818047 36.1001847,153.680284 42.05,153.79 C45.9788712,153.754516 49.9005387,154.133276 53.75,154.92 C57.2955016,155.685304 60.7608657,156.783506 64.1,158.2 L59.39,176.29 C57.1051197,175.43225 54.7668465,174.724088 52.39,174.17 C49.5954858,173.533764 46.7358513,173.228333 43.87,173.26 C37.2033333,173.26 32.2033333,175.336667 28.87,179.49 C25.5366667,183.643333 23.87,189.12 23.87,195.92 C23.87,203.12 25.42,208.696667 28.52,212.65 C31.62,216.603333 37.0166667,218.576667 44.71,218.57 C47.6691391,218.558004 50.6223318,218.303822 53.54,217.81 C56.5175008,217.352974 59.428695,216.537033 62.21,215.38 L65.4,233.94 C62.203056,235.214173 58.8912076,236.178594 55.51,236.82 C51.224443,237.652611 46.8654254,238.047972 42.5,238 C36.0609818,238.152458 29.654234,237.045035 23.64,234.74 C18.6962051,232.781751 14.2540454,229.74058 10.64,225.84 C7.19857328,222.011981 4.65354766,217.465096 3.19,212.53 C1.58170672,207.141502 0.786285621,201.54322 0.83,195.92 Z" id="Shape"></path>
            <path d="M151.71,195.76 C151.782979,201.618202 150.86678,207.446713 149,213 C147.32447,217.96543 144.630275,222.526148 141.09,226.39 C137.617488,230.108417 133.389501,233.040731 128.69,234.99 C118.32312,239.030514 106.81688,239.030514 96.45,234.99 C91.7504987,233.040731 87.5225117,230.108417 84.05,226.39 C80.4971418,222.510722 77.7596685,217.957335 76,213 C74.0085102,207.466497 73.0262739,201.620498 73.1,195.74 C73.0405035,189.878022 74.0573471,184.054898 76.1,178.56 C77.9195718,173.642983 80.7118784,169.143322 84.31,165.33 C87.83573,161.659245 92.0808841,158.755383 96.78,156.8 C106.939697,152.759586 118.260303,152.759586 128.42,156.8 C133.102856,158.742315 137.324387,161.648664 140.81,165.33 C144.366923,169.148948 147.11227,173.649685 148.88,178.56 C150.843736,184.078115 151.802233,189.903607 151.71,195.76 Z M128.59,195.76 C128.59,188.76 127.193333,183.26 124.4,179.26 C121.62,175.26 117.64,173.26 112.47,173.26 C107.704019,173.061767 103.171002,175.328275 100.47,179.26 C97.63,183.26 96.21,188.76 96.21,195.76 C96.21,202.76 97.63,208.313333 100.47,212.42 C103.122608,216.423733 107.670824,218.754694 112.47,218.57 C117.254865,218.775952 121.792088,216.436981 124.4,212.42 C127.186667,208.313333 128.583333,202.76 128.59,195.76 Z" id="Shape"></path>
            <path d="M239.76,233.33 C237.76,233.943333 235.426667,234.526667 232.76,235.08 C230.093333,235.633333 227.333333,236.113333 224.48,236.52 C221.59,236.93 218.64,237.26 215.65,237.52 C212.66,237.78 209.8,237.9 207.06,237.9 C201.054234,237.991341 195.080431,237.009253 189.42,235 C179.46605,231.475993 171.659102,223.610152 168.21,213.63 C166.255175,208.085634 165.300354,202.238206 165.39,196.36 C165.312685,190.417794 166.131895,184.497902 167.82,178.8 C169.247355,173.942932 171.626888,169.418421 174.82,165.49 C177.834552,161.859935 181.665701,158.99514 186,157.13 C190.78952,155.131758 195.94117,154.147735 201.13,154.24 C203.969377,154.209414 206.802401,154.514871 209.57,155.15 C212.149637,155.795773 214.668927,156.662302 217.1,157.74 L217.1,96.2 L239.76,92.54 L239.76,233.33 Z M188.5,195.33 C188.5,202.323333 190.073333,207.95 193.22,212.21 C196.366667,216.47 201.033333,218.596667 207.22,218.59 C209.22,218.59 211.13,218.52 212.85,218.37 C214.57,218.22 215.99,218.04 217.11,217.83 L217.11,176.6 C215.386353,175.562897 213.514936,174.794098 211.56,174.32 C209.303559,173.711695 206.976997,173.402384 204.64,173.4 C193.886667,173.4 188.506667,180.703333 188.5,195.31 L188.5,195.33 Z" id="Shape"></path>
            <path d="M289.8,153.79 C295.463107,153.643266 301.112683,154.413202 306.53,156.07 C310.583016,157.338489 314.263605,159.580489 317.25,162.6 C320.003688,165.533113 321.980296,169.108194 323,173 C324.157228,177.418811 324.718864,181.972432 324.67,186.54 L324.67,233.68 C321.43,234.386667 316.916667,235.223333 311.13,236.19 C304.180499,237.238329 297.157634,237.723241 290.13,237.64 C285.382845,237.671766 280.645907,237.195726 276,236.22 C272.11591,235.444922 268.420262,233.919788 265.12,231.73 C262.103695,229.688134 259.687165,226.878056 258.12,223.59 C256.391846,219.722485 255.561108,215.514097 255.69,211.28 C255.560479,207.14324 256.53376,203.046486 258.51,199.41 C260.321522,196.230084 262.908545,193.560496 266.03,191.65 C269.367209,189.657056 273.019403,188.246903 276.83,187.48 C280.982922,186.605977 285.216112,186.170257 289.46,186.18 C292.074944,186.165345 294.688764,186.292197 297.29,186.56 C299.163827,186.743937 301.019815,187.07835 302.84,187.56 L302.84,185.43 C302.996572,181.990357 301.730795,178.637854 299.34,176.16 C297.006667,173.82 292.95,172.65 287.17,172.65 C283.354631,172.652447 279.544522,172.933192 275.77,173.49 C272.451854,173.945132 269.188466,174.735851 266.03,175.85 L263.14,157.6 C264.473333,157.193333 266.123333,156.76 268.09,156.3 C270.09,155.85 272.21,155.44 274.55,155.09 C276.89,154.74 279.34,154.43 281.93,154.17 C284.52,153.91 287.16,153.79 289.8,153.79 Z M291.62,220.1 C293.853333,220.1 295.983333,220.05 298.01,219.95 C299.640165,219.880535 301.26566,219.726998 302.88,219.49 L302.88,202.3 C301.97,202.1 300.6,201.9 298.77,201.69 C297.10999,201.499599 295.440867,201.399451 293.77,201.39 C291.763817,201.384484 289.759458,201.511427 287.77,201.77 C286.059846,201.981392 284.395069,202.467656 282.84,203.21 C281.489112,203.862726 280.333763,204.85943 279.49,206.1 C278.636575,207.467532 278.211699,209.059075 278.27,210.67 C278.27,214.22 279.46,216.67 281.85,218.04 C284.24,219.41 287.47,220.1 291.62,220.1 Z" id="Shape"></path>
            <path d="M393.37,176 C391.37,175.493333 388.986667,174.96 386.22,174.4 C383.314652,173.832549 380.360204,173.554523 377.4,173.57 C375.693843,173.59258 373.990664,173.719483 372.3,173.95 C370.787897,174.113463 369.290303,174.390919 367.82,174.78 L367.82,235.92 L345.16,235.92 L345.16,160.17 C349.874989,158.580541 354.671888,157.245287 359.53,156.17 C365.599901,154.849686 371.798429,154.212391 378.01,154.27 C379.22,154.27 380.7,154.35 382.42,154.5 C384.14,154.65 385.86,154.86 387.59,155.11 C389.32,155.36 391.04,155.67 392.76,156.02 C394.266124,156.315187 395.742224,156.746971 397.17,157.31 L393.37,176 Z" id="Shape"></path>
            <path d="M228.78,47.22 C192.51,47.22 163.17,69.88 163.17,69.88 L165.75,92.54 C165.75,92.54 194.93,69.88 228.75,69.88 C262.57,69.88 291.75,92.54 291.75,92.54 L294.34,69.88 C294.34,69.88 265,47.22 228.78,47.22 Z" id="Shape"></path>
            <path d="M228.78,0 C156.51,0 120.53,41.65 120.53,41.65 L122.93,64.31 C122.93,64.31 164.79,22.66 228.78,22.66 C292.77,22.66 334.62,64.31 334.62,64.31 L337,41.61 C337,41.61 301.05,0 228.78,0 Z" id="Shape"></path>
        </g>
    </g>
</svg>