<svg width="62" height="15" viewBox="0 0 62 15" fill="none" xmlns="http://www.w3.org/2000/svg">
<path d="M7.974 6.116C7.734 6.368 7.416 6.722 7.02 7.178C6.636 7.634 6.222 8.144 5.778 8.708C5.334 9.26 4.884 9.842 4.428 10.454C3.984 11.054 3.582 11.63 3.222 12.182H8.082V14H0.594V12.65C0.858 12.17 1.188 11.648 1.584 11.084C1.98 10.52 2.388 9.956 2.808 9.392C3.228 8.816 3.642 8.27 4.05 7.754C4.47 7.238 4.842 6.788 5.166 6.404H0.828V4.586H7.974V6.116ZM9.28392 9.338C9.28392 8.51 9.40392 7.784 9.64392 7.16C9.89592 6.536 10.2259 6.02 10.6339 5.612C11.0419 5.192 11.5099 4.88 12.0379 4.676C12.5659 4.46 13.1059 4.352 13.6579 4.352C14.9539 4.352 15.9619 4.754 16.6819 5.558C17.4139 6.362 17.7799 7.562 17.7799 9.158C17.7799 9.278 17.7739 9.416 17.7619 9.572C17.7619 9.716 17.7559 9.848 17.7439 9.968H11.5339C11.5939 10.724 11.8579 11.312 12.3259 11.732C12.8059 12.14 13.4959 12.344 14.3959 12.344C14.9239 12.344 15.4039 12.296 15.8359 12.2C16.2799 12.104 16.6279 12.002 16.8799 11.894L17.1679 13.676C17.0479 13.736 16.8799 13.802 16.6639 13.874C16.4599 13.934 16.2199 13.988 15.9439 14.036C15.6799 14.096 15.3919 14.144 15.0799 14.18C14.7679 14.216 14.4499 14.234 14.1259 14.234C13.2979 14.234 12.5779 14.114 11.9659 13.874C11.3539 13.622 10.8499 13.28 10.4539 12.848C10.0579 12.404 9.76392 11.888 9.57192 11.3C9.37992 10.7 9.28392 10.046 9.28392 9.338ZM15.6019 8.366C15.6019 8.066 15.5599 7.784 15.4759 7.52C15.3919 7.244 15.2659 7.01 15.0979 6.818C14.9419 6.614 14.7439 6.458 14.5039 6.35C14.2759 6.23 13.9999 6.17 13.6759 6.17C13.3399 6.17 13.0459 6.236 12.7939 6.368C12.5419 6.488 12.3259 6.65 12.1459 6.854C11.9779 7.058 11.8459 7.292 11.7499 7.556C11.6539 7.82 11.5879 8.09 11.5519 8.366H15.6019ZM22.2851 14H20.1071V4.586H22.2851V14ZM22.5191 1.832C22.5191 2.24 22.3871 2.564 22.1231 2.804C21.8591 3.044 21.5471 3.164 21.1871 3.164C20.8151 3.164 20.4971 3.044 20.2331 2.804C19.9691 2.564 19.8371 2.24 19.8371 1.832C19.8371 1.412 19.9691 1.082 20.2331 0.842C20.4971 0.601999 20.8151 0.481999 21.1871 0.481999C21.5471 0.481999 21.8591 0.601999 22.1231 0.842C22.3871 1.082 22.5191 1.412 22.5191 1.832ZM24.9557 2.102L27.1337 1.742V4.586H30.4817V6.404H27.1337V10.238C27.1337 10.994 27.2537 11.534 27.4937 11.858C27.7337 12.182 28.1417 12.344 28.7177 12.344C29.1137 12.344 29.4617 12.302 29.7617 12.218C30.0737 12.134 30.3197 12.056 30.4997 11.984L30.8597 13.712C30.6077 13.82 30.2777 13.928 29.8697 14.036C29.4617 14.156 28.9817 14.216 28.4297 14.216C27.7577 14.216 27.1937 14.126 26.7377 13.946C26.2937 13.766 25.9397 13.508 25.6757 13.172C25.4117 12.824 25.2257 12.41 25.1177 11.93C25.0097 11.438 24.9557 10.88 24.9557 10.256V2.102ZM38.8332 9.266C38.8332 8.342 38.6472 7.61 38.2752 7.07C37.9152 6.53 37.3392 6.26 36.5472 6.26C36.1872 6.26 35.8452 6.314 35.5212 6.422C35.2092 6.53 34.9572 6.65 34.7652 6.782V12.2C34.9212 12.236 35.1192 12.272 35.3592 12.308C35.6112 12.332 35.9112 12.344 36.2592 12.344C37.0632 12.344 37.6932 12.074 38.1492 11.534C38.6052 10.982 38.8332 10.226 38.8332 9.266ZM41.0652 9.302C41.0652 10.058 40.9512 10.742 40.7232 11.354C40.5072 11.954 40.1892 12.47 39.7692 12.902C39.3612 13.334 38.8632 13.664 38.2752 13.892C37.6872 14.12 37.0212 14.234 36.2772 14.234C35.5572 14.234 34.8672 14.18 34.2072 14.072C33.5592 13.964 33.0192 13.844 32.5872 13.712V0.391999L34.7652 0.0319996V4.91C35.0172 4.778 35.3232 4.658 35.6832 4.55C36.0552 4.442 36.4632 4.388 36.9072 4.388C37.5672 4.388 38.1552 4.508 38.6712 4.748C39.1992 4.976 39.6372 5.306 39.9852 5.738C40.3332 6.17 40.5972 6.692 40.7772 7.304C40.9692 7.904 41.0652 8.57 41.0652 9.302ZM51.8238 9.284C51.8238 10.028 51.7158 10.706 51.4998 11.318C51.2838 11.93 50.9778 12.452 50.5818 12.884C50.1858 13.316 49.7058 13.652 49.1418 13.892C48.5898 14.132 47.9778 14.252 47.3058 14.252C46.6338 14.252 46.0218 14.132 45.4698 13.892C44.9178 13.652 44.4438 13.316 44.0478 12.884C43.6518 12.452 43.3398 11.93 43.1118 11.318C42.8958 10.706 42.7878 10.028 42.7878 9.284C42.7878 8.54 42.8958 7.868 43.1118 7.268C43.3398 6.656 43.6518 6.134 44.0478 5.702C44.4558 5.27 44.9358 4.94 45.4878 4.712C46.0398 4.472 46.6458 4.352 47.3058 4.352C47.9658 4.352 48.5718 4.472 49.1238 4.712C49.6878 4.94 50.1678 5.27 50.5638 5.702C50.9598 6.134 51.2658 6.656 51.4818 7.268C51.7098 7.868 51.8238 8.54 51.8238 9.284ZM49.5918 9.284C49.5918 8.348 49.3878 7.61 48.9798 7.07C48.5838 6.518 48.0258 6.242 47.3058 6.242C46.5858 6.242 46.0218 6.518 45.6138 7.07C45.2178 7.61 45.0198 8.348 45.0198 9.284C45.0198 10.232 45.2178 10.982 45.6138 11.534C46.0218 12.086 46.5858 12.362 47.3058 12.362C48.0258 12.362 48.5838 12.086 48.9798 11.534C49.3878 10.982 49.5918 10.232 49.5918 9.284ZM57.188 7.664L59.186 4.586H61.472L58.376 9.032C59.024 9.872 59.642 10.724 60.23 11.588C60.83 12.44 61.322 13.244 61.706 14H59.348C59.24 13.772 59.096 13.514 58.916 13.226C58.748 12.926 58.562 12.62 58.358 12.308C58.166 11.984 57.962 11.666 57.746 11.354C57.53 11.042 57.32 10.748 57.116 10.472C56.696 11.012 56.282 11.612 55.874 12.272C55.478 12.92 55.148 13.496 54.884 14H52.652C52.832 13.64 53.048 13.256 53.3 12.848C53.552 12.44 53.822 12.026 54.11 11.606C54.398 11.174 54.692 10.748 54.992 10.328C55.304 9.896 55.61 9.488 55.91 9.104L52.796 4.586H55.19L57.188 7.664Z" fill="#474E6C"/>
</svg>
