<svg width="716" height="807" viewBox="0 0 716 807" fill="none" xmlns="http://www.w3.org/2000/svg">
<g clip-path="url(#clip0)">
<path d="M664 773.81C691.38 760.81 703 720.59 713.75 692.27C724.91 662.87 675.93 656.16 668.65 625.56C636.56 490.56 576.78 354.2 464.11 273.11C457.98 268.7 451.68 264.44 446.39 259.04C441.39 253.96 437.39 247.97 432.63 242.71C417.83 226.48 396.22 218.2 374.82 213.2C281.48 191.4 184.82 222.2 93.92 252.67L35.74 272.17C22.12 276.73 6.73998 282.95 2.16998 296.56C-4.34002 319.34 4.64998 330.05 19 336.82C23.46 338.93 56.47 331.38 56.47 335.89C56.47 340.4 21.86 344.29 17.47 347.26C8.10998 353.63 0.409981 361.76 2.99998 378.5C5.49998 394.5 19.28 399.87 29.41 399.87C39.54 399.87 64.56 396.49 65.24 397.87C65.92 399.25 42.24 403.95 30.09 407.33C17.94 410.71 11.84 419.5 11.16 433.69C10.48 447.88 14.93 454 26.11 459.43C37.29 464.86 47 462 60.53 463.4C136.39 471.26 192.34 526.71 248.6 578.2C272.98 600.52 294.23 626.2 319.47 647.51C370 690.25 400.65 683.92 452.36 691.81C478.22 695.75 497.66 780.31 529.91 801.45C562.16 822.59 664 773.81 664 773.81Z" fill="#EFB4B4"/>
<path d="M97 3.05C108.12 -0.279999 120 -0.109999 131.56 0.0500005L328.7 3.54C344.78 3.82 363.58 5.54 372.12 19.18C376.68 26.44 377.07 35.46 377.34 44.03L379.2 104.73C383.8 254.19 381.5 389.59 365.35 538.25C362.28 566.44 365.93 583.64 353.7 588.51C350.14 589.93 309.7 593.09 305.89 593.42C228.24 600.13 177.89 600.64 100.25 593.71C83.6 592.22 64.48 588.48 56.54 573.77C52.54 566.45 52.3 557.77 52.12 549.47C49.5533 430.957 50.22 312.433 54.12 193.9C54.84 171.9 55.67 149.9 54.27 128C53.1606 110.713 53.6796 93.3599 55.82 76.17C58.38 16.06 85.87 6.39 97 3.05Z" fill="#1D1D1B"/>
<path d="M104.18 31.44C114.35 28.44 125.18 28.63 135.77 28.81L316 31.88C330.7 32.13 347.88 33.67 355.69 45.79C359.86 52.26 360.22 60.29 360.46 67.92L362.17 121.92C366.37 254.92 364.27 375.48 349.5 507.81C346.7 532.91 350.04 548.22 338.85 552.55C335.6 553.81 298.63 556.62 295.15 556.92C224.15 562.92 178.15 563.35 107.15 557.18C91.93 555.85 78.25 552.52 70.98 539.43C67.37 532.92 67.11 525.2 66.98 517.8C64.64 412.307 65.2433 306.803 68.79 201.29C69.44 181.74 72.79 159.54 71.54 140.02C70.5271 124.633 71.0026 109.185 72.96 93.89C75.3 40.41 94 34.42 104.18 31.44Z" fill="white"/>
<path d="M126.75 212C134.88 211.51 143.53 211.53 152.01 211.56L296.13 212.08C307.88 212.08 321.62 212.37 327.87 214.39C331.2 215.47 331.49 216.81 331.68 218.08L333.04 227.08C336.41 249.24 334.73 269.31 322.92 291.35C320.68 295.53 323.35 298.08 314.4 298.8C311.8 299.01 282.24 299.48 279.45 299.53C222.7 300.53 185.88 300.6 129.14 299.53C116.97 299.31 102.99 298.76 97.1399 296.58C94.2499 295.49 94.05 294.21 93.91 292.97C92.0395 275.414 92.5238 257.687 95.3499 240.26C95.8799 237 96.4899 233.74 95.4699 230.49C95.0717 229.205 94.9665 227.848 95.162 226.517C95.3576 225.186 95.8489 223.916 96.5999 222.8C98.5299 213.94 118.63 212.51 126.75 212Z" fill="#0065FF"/>
<path d="M295.37 242.19L295.68 240.19L290.77 239.52C290.87 247.833 291.107 256.14 291.48 264.44C291.56 266.22 291.24 268.61 292.61 269.97C293.98 271.33 297.11 270.97 298.98 270.97L311.29 271.26C314.51 271.33 314.51 266.33 311.29 266.26L302.92 266.06C300.19 266 297.41 266.06 294.69 265.85L295.95 266.19L295.64 266.05L296.53 266.95C296.63 267.6 296.65 267.59 296.59 266.95C296.59 266.62 296.59 266.29 296.59 265.95C296.59 265.45 296.54 264.95 296.52 264.45C296.46 263.29 296.41 262.13 296.37 260.97C296.27 258.557 296.183 256.147 296.11 253.74C295.963 249.013 295.863 244.277 295.81 239.53C295.822 238.909 295.602 238.306 295.193 237.838C294.785 237.371 294.217 237.072 293.6 237C293.003 236.908 292.393 237.04 291.887 237.37C291.382 237.701 291.016 238.206 290.86 238.79L290.55 240.79C290.394 241.428 290.488 242.102 290.814 242.673C291.139 243.245 291.671 243.669 292.3 243.86C292.938 244.032 293.618 243.946 294.192 243.621C294.767 243.295 295.19 242.756 295.37 242.12V242.19Z" fill="#1D1D1B"/>
<path d="M295.1 241.12C297.588 241.561 300.105 241.818 302.63 241.89C305.002 241.865 307.369 241.695 309.72 241.38C310.377 241.362 311.003 241.093 311.468 240.628C311.933 240.163 312.202 239.537 312.22 238.88C312.16 237.66 311.11 236.22 309.72 236.38C307.436 236.689 305.135 236.86 302.83 236.89C301.83 236.89 300.83 236.83 299.83 236.74C299.24 236.69 298.64 236.62 298.05 236.54L297.5 236.46L296.44 236.3C295.803 236.141 295.129 236.233 294.557 236.557C293.986 236.88 293.561 237.411 293.37 238.04C293.2 238.679 293.287 239.359 293.612 239.935C293.937 240.51 294.475 240.936 295.11 241.12H295.1Z" fill="#1D1D1B"/>
<path d="M295 255.68C299.56 255.367 304.123 255.17 308.69 255.09C309.353 255.09 309.989 254.827 310.458 254.358C310.927 253.889 311.19 253.253 311.19 252.59C311.19 251.927 310.927 251.291 310.458 250.822C309.989 250.353 309.353 250.09 308.69 250.09C304.123 250.17 299.56 250.367 295 250.68C294.341 250.693 293.712 250.96 293.246 251.426C292.78 251.892 292.513 252.521 292.5 253.18C292.508 253.841 292.774 254.472 293.241 254.939C293.708 255.406 294.339 255.672 295 255.68Z" fill="#1D1D1B"/>
<path d="M117.71 237.55C116.13 248.217 114.967 258.917 114.22 269.65C114.22 270.313 114.483 270.949 114.952 271.418C115.421 271.887 116.057 272.15 116.72 272.15C117.383 272.15 118.019 271.887 118.488 271.418C118.957 270.949 119.22 270.313 119.22 269.65C119.627 265.563 120.087 261.48 120.6 257.4C121.08 253.57 121.48 249.67 122.23 245.88C122.334 244.693 122.83 243.574 123.64 242.7C123.941 242.51 124.292 242.413 124.648 242.422C125.004 242.43 125.349 242.545 125.64 242.75C127.42 243.7 128.29 245.47 127.38 247.29C126.13 249.79 122.98 250.76 120.38 250.64C117.16 250.49 117.17 255.49 120.38 255.64C122.322 255.754 124.264 255.419 126.055 254.661C127.847 253.904 129.44 252.743 130.71 251.27C132.034 249.733 132.748 247.764 132.714 245.736C132.681 243.708 131.904 241.762 130.53 240.27C128.02 237.47 123.63 236.34 120.53 238.82C118.919 240.26 117.859 242.215 117.53 244.35C117.03 246.73 116.78 249.18 116.45 251.59C115.617 257.59 114.9 263.59 114.3 269.59H119.3C120 259.29 121.103 249.033 122.61 238.82C122.766 238.182 122.672 237.508 122.346 236.937C122.021 236.365 121.489 235.941 120.86 235.75C120.222 235.578 119.542 235.664 118.968 235.989C118.393 236.315 117.97 236.854 117.79 237.49L117.71 237.55Z" fill="#1D1D1B"/>
<path d="M146.11 249.66C144.04 247.39 141.01 248.07 138.92 249.89C137.154 251.551 135.928 253.704 135.4 256.07C134.33 260.07 133.73 265.39 136.2 269.07C136.87 270.072 137.757 270.911 138.796 271.522C139.835 272.133 140.999 272.502 142.2 272.6C144.9 272.85 147.48 271.41 149.33 269.6C153.22 265.7 155.56 259.1 154.44 253.66C154.136 252.168 153.461 250.776 152.477 249.614C151.493 248.451 150.232 247.556 148.81 247.01C147.509 246.453 146.074 246.288 144.681 246.537C143.287 246.786 141.998 247.437 140.97 248.41C138.69 250.69 142.22 254.22 144.51 251.95C144.51 251.89 145.13 251.49 144.72 251.74L145.11 251.52C144.6 251.77 146.01 251.39 145.37 251.44C145.679 251.415 145.991 251.415 146.3 251.44C145.75 251.44 146.5 251.49 146.56 251.51C146.795 251.567 147.026 251.64 147.25 251.73C146.88 251.58 147.73 252.01 147.85 252.08C147.97 252.15 148.36 252.44 148.04 252.19C148.17 252.29 148.29 252.4 148.41 252.51C148.56 252.65 148.701 252.801 148.83 252.96C149.09 253.27 148.61 252.51 148.94 253.14C149.128 253.459 149.288 253.794 149.42 254.14C149.9 256.099 149.785 258.157 149.09 260.05C148.605 261.812 147.805 263.472 146.73 264.95C146.24 265.587 145.68 266.168 145.06 266.68C144.825 266.85 144.582 267.006 144.33 267.15C144.025 267.343 143.685 267.476 143.33 267.54C143.23 267.54 142.69 267.63 143.1 267.6H142.58C141.84 267.6 142.73 267.66 142.31 267.6C142.1 267.6 141.89 267.49 141.68 267.44C141.25 267.33 141.54 267.39 141.68 267.44C141.51 267.37 141.36 267.27 141.2 267.19C141.04 267.11 140.71 266.84 141.11 267.19C140.951 267.064 140.8 266.927 140.66 266.78L140.39 266.47C140.76 266.92 140.39 266.39 140.31 266.31C140.164 266.069 140.034 265.818 139.92 265.56C140.14 266.06 139.79 265.09 139.75 264.93C139.71 264.77 139.68 264.63 139.65 264.49C139.623 264.295 139.587 264.101 139.54 263.91C139.54 264.28 139.54 263.5 139.54 263.53C139.54 263.37 139.54 263.21 139.54 263.05C139.54 262.643 139.54 262.233 139.54 261.82C139.54 261.45 139.54 261.07 139.61 260.7C139.61 260.49 139.61 260.28 139.68 260.07C139.62 260.5 139.68 259.81 139.73 259.74C139.879 258.839 140.079 257.948 140.33 257.07C140.425 256.681 140.542 256.297 140.68 255.92C140.95 255.17 140.57 256.11 140.78 255.68C140.99 255.25 141.07 255.13 141.24 254.86C141.393 254.57 141.589 254.303 141.82 254.07C141.97 253.91 142.12 253.76 142.28 253.61L142.56 253.36C142.41 253.48 142.4 253.49 142.56 253.36C142.714 253.251 142.878 253.158 143.05 253.08C142.81 253.17 142.78 253.2 142.94 253.15C143.1 253.1 143.07 253.15 142.77 253.15H142.67C142.38 253.01 142.36 253 142.61 253.15C142.39 252.98 142.38 253 142.61 253.21C142.842 253.442 143.118 253.627 143.422 253.753C143.726 253.878 144.051 253.943 144.38 253.943C144.709 253.943 145.034 253.878 145.338 253.753C145.642 253.627 145.918 253.442 146.15 253.21C146.382 252.978 146.567 252.702 146.693 252.398C146.818 252.094 146.883 251.769 146.883 251.44C146.883 251.111 146.818 250.786 146.693 250.482C146.567 250.178 146.382 249.902 146.15 249.67L146.11 249.66Z" fill="#1D1D1B"/>
<path d="M175.93 241.87C174.434 240.587 172.548 239.85 170.578 239.779C168.609 239.708 166.674 240.308 165.09 241.48C163.417 242.553 162.191 244.197 161.639 246.106C161.087 248.015 161.247 250.06 162.09 251.86C163.46 254.86 166.31 256.95 168.92 258.86C170.128 259.699 171.268 260.632 172.33 261.65C172.59 261.91 172.85 262.18 173.09 262.47C173.09 262.52 173.38 262.84 173.15 262.53L173.43 262.92C173.61 263.23 173.79 263.53 173.94 263.85C174.09 264.17 173.83 263.52 173.94 263.9C174.02 264.12 174.08 264.35 174.14 264.58C174.14 264.64 174.22 265.13 174.19 264.84C174.16 264.55 174.19 265.32 174.19 265.42C174.163 265.784 174.078 266.142 173.94 266.48C173.577 267.321 172.909 267.992 172.07 268.36C171.214 268.647 170.28 268.594 169.462 268.21C168.644 267.826 168.006 267.142 167.68 266.3C167.344 265.729 166.796 265.314 166.155 265.145C165.515 264.977 164.833 265.068 164.26 265.4C163.699 265.745 163.292 266.293 163.125 266.93C162.957 267.567 163.041 268.244 163.36 268.82C163.891 269.919 164.655 270.888 165.599 271.661C166.543 272.434 167.644 272.991 168.826 273.294C170.008 273.597 171.242 273.638 172.441 273.414C173.64 273.191 174.777 272.708 175.77 272C177.456 270.725 178.61 268.871 179.01 266.796C179.411 264.721 179.03 262.571 177.94 260.76C176.19 257.76 173.14 255.91 170.47 253.87C169.302 253.017 168.238 252.031 167.3 250.93C167.52 251.22 167.05 250.56 166.97 250.44L166.68 249.92C166.68 249.86 166.44 249.41 166.55 249.67C166.295 249.121 166.195 248.512 166.26 247.91C166.26 248.26 166.52 247.09 166.4 247.37C166.473 247.208 166.557 247.051 166.65 246.9C166.65 246.9 167.12 246.28 166.89 246.54C167.395 245.912 168.058 245.429 168.81 245.14C169.376 244.853 170.01 244.729 170.643 244.782C171.275 244.835 171.88 245.063 172.39 245.44C174.77 247.6 178.31 244.08 175.93 241.91V241.87Z" fill="#1D1D1B"/>
<path d="M186.32 244.22L189.32 267.98C189.34 268.637 189.61 269.261 190.075 269.726C190.539 270.19 191.163 270.46 191.82 270.48C192.482 270.477 193.117 270.213 193.585 269.745C194.053 269.277 194.317 268.642 194.32 267.98L191.32 244.22C191.3 243.563 191.03 242.939 190.566 242.474C190.101 242.01 189.477 241.74 188.82 241.72C188.158 241.723 187.523 241.987 187.055 242.455C186.587 242.923 186.323 243.558 186.32 244.22Z" fill="#1D1D1B"/>
<path d="M202.52 245.34L225.08 244.16C225.739 244.147 226.368 243.88 226.834 243.414C227.3 242.948 227.567 242.319 227.58 241.66C227.575 240.999 227.31 240.366 226.842 239.898C226.374 239.43 225.741 239.165 225.08 239.16L202.52 240.34C201.857 240.34 201.221 240.603 200.752 241.072C200.283 241.541 200.02 242.177 200.02 242.84C200.02 243.503 200.283 244.139 200.752 244.608C201.221 245.077 201.857 245.34 202.52 245.34Z" fill="#1D1D1B"/>
<path d="M209.88 245.34C212.492 251.942 213.947 258.944 214.18 266.04C214.29 269.25 219.29 269.26 219.18 266.04C218.954 258.506 217.442 251.065 214.71 244.04C214.515 243.412 214.088 242.882 213.515 242.559C212.943 242.236 212.268 242.143 211.63 242.3C210.994 242.48 210.454 242.903 210.127 243.477C209.799 244.051 209.711 244.731 209.88 245.37V245.34Z" fill="#1D1D1B"/>
<path d="M238.43 242.83C240.073 251.429 241.275 260.108 242.03 268.83L243.27 266.68C244.06 266.16 245.93 267.01 245.46 268.17L244.82 269.27L244.97 269.09C245.421 268.613 245.672 267.981 245.672 267.325C245.672 266.669 245.421 266.037 244.97 265.56C244.497 265.097 243.862 264.838 243.2 264.838C242.538 264.838 241.903 265.097 241.43 265.56C240.83 266.199 240.496 267.043 240.496 267.92C240.496 268.797 240.83 269.641 241.43 270.28C241.952 270.9 242.679 271.312 243.478 271.443C244.278 271.573 245.098 271.412 245.79 270.99C246.169 270.771 246.483 270.456 246.701 270.077C246.919 269.698 247.032 269.267 247.03 268.83C246.24 259.654 244.978 250.526 243.25 241.48C243.068 240.845 242.645 240.307 242.071 239.98C241.497 239.653 240.819 239.563 240.18 239.73C239.549 239.921 239.015 240.347 238.69 240.92C238.364 241.494 238.271 242.17 238.43 242.81V242.83Z" fill="#1D1D1B"/>
<path d="M255 243.16C258.881 252.291 263.499 261.09 268.81 269.47C269.067 269.883 269.437 270.214 269.876 270.422C270.316 270.63 270.806 270.707 271.288 270.643C271.771 270.58 272.224 270.379 272.595 270.065C272.966 269.75 273.239 269.335 273.38 268.87C277.06 257.923 280.743 246.977 284.43 236.03C285.43 232.97 280.63 231.66 279.6 234.7L268.6 267.54L273.17 266.94C267.857 258.561 263.238 249.762 259.36 240.63C259.021 240.063 258.472 239.652 257.832 239.485C257.192 239.319 256.513 239.41 255.94 239.74C255.379 240.085 254.972 240.633 254.805 241.27C254.637 241.907 254.721 242.584 255.04 243.16H255Z" fill="#1D1D1B"/>
<path d="M470.47 531.58C391.69 492.17 376.16 469.25 377.56 381.17C399.77 386.24 411.32 392.47 436.75 397.37C387.55 385.9 348 368 300.14 351.86C287 347.44 268.44 343 258.05 333.86C247.66 324.72 236.18 316.2 239.56 302.75C244.79 281.96 270.02 273.86 291.43 272.75C333.29 270.68 374.55 281.75 414.93 293.01C441.01 300.26 467.84 308.01 489.01 324.85C508.7 340.55 527.49 362.32 539.23 384.6C564.04 431.66 584 453.6 602.04 503.6C608.04 520.22 619.64 571.91 624.15 589" fill="#EFB4B4"/>
<path d="M471.73 529.42C458.42 522.75 445.18 515.81 432.66 507.73C423.09 501.56 413.92 494.67 406.13 486.33C399.35 479.107 393.89 470.751 390 461.64C385.76 451.64 383.39 440.86 382 430.12C379.93 413.91 379.8 397.49 380.05 381.17L376.89 383.58C386.5 385.79 395.89 388.77 405.27 391.75C415.378 395.005 425.665 397.676 436.08 399.75C439.2 400.36 440.57 395.67 437.41 394.93C408.54 388.18 380.59 378.4 352.82 368.14C338.73 362.94 324.67 357.68 310.49 352.74C298.41 348.53 285.85 345.34 274.06 340.35C268.549 338.145 263.43 335.066 258.9 331.23C254.3 327.23 249.33 323.28 245.63 318.36C242.24 313.86 240.63 308.68 242.03 303.11C243.313 298.256 245.872 293.833 249.44 290.3C256.93 282.76 267.53 278.96 277.74 276.9C290.98 274.23 304.9 274.62 318.3 275.58C349.63 277.83 380.17 285.95 410.3 294.3C436.92 301.69 465 309 487 326.42C498.244 335.379 508.49 345.525 517.56 356.68C522.197 362.33 526.494 368.251 530.43 374.41C534.35 380.56 537.66 387.02 541.15 393.41C553.29 415.64 567.35 436.75 579.39 459.03C590.189 478.649 598.676 499.455 604.68 521.03C609.97 540.54 614.49 560.25 619.3 579.88C620.1 583.14 620.91 586.4 621.76 589.65C622.61 592.9 627.41 591.44 626.58 588.32C621.68 569.7 617.58 550.87 612.78 532.21C610.54 523.44 608.31 514.63 605.52 506.01C601.435 493.795 596.521 481.874 590.81 470.33C579.75 447.44 565.7 426.23 553 404.25C545.67 391.57 539.34 378.25 531 366.25C522.53 354.027 512.763 342.755 501.87 332.63C491.571 322.827 479.844 314.644 467.09 308.36C454.25 302.19 440.67 297.76 427.01 293.81C396.63 285.02 365.87 276.4 334.45 272.26C319.19 270.26 303.54 269.2 288.17 270.47C277 271.39 265.62 273.94 255.76 279.47C246.42 284.7 238.33 293.41 236.76 304.35C234.87 317.35 245.76 326.35 254.52 334.01C259.065 338.038 264.185 341.368 269.71 343.89C275.634 346.475 281.704 348.708 287.89 350.58C301.62 354.93 315.2 359.64 328.72 364.58C356.89 374.87 384.87 385.76 413.72 393.98C421.153 396.087 428.623 398.023 436.13 399.79L437.46 394.97C427.045 392.896 416.758 390.225 406.65 386.97C397.25 383.97 387.88 380.97 378.27 378.8C377.899 378.705 377.511 378.695 377.136 378.771C376.761 378.847 376.407 379.007 376.102 379.239C375.797 379.47 375.549 379.768 375.375 380.109C375.202 380.451 375.108 380.827 375.1 381.21C374.87 396.27 374.99 411.4 376.61 426.38C377.86 437.96 379.98 449.53 384.17 460.43C387.858 470.064 393.171 478.994 399.88 486.83C407.32 495.51 416.32 502.74 425.74 509.15C439.53 518.54 454.36 526.32 469.25 533.77C472.12 535.21 474.65 530.9 471.77 529.46L471.73 529.42Z" fill="#DCA5A5" fill-opacity="0.9"/>
<path d="M155.48 92.46C156.41 98.3092 156.832 104.228 156.74 110.15C156.74 116.08 156.62 122.15 155.38 127.8C154.69 130.93 159.51 132.27 160.2 129.13C161.399 122.871 161.915 116.5 161.74 110.13C161.83 103.766 161.348 97.4075 160.3 91.13C160.12 90.4943 159.697 89.9552 159.122 89.6294C158.548 89.3037 157.868 89.2177 157.23 89.39C156.598 89.5766 156.063 90.0004 155.737 90.5727C155.411 91.145 155.319 91.8213 155.48 92.46Z" fill="#1D1D1B"/>
<path d="M138.61 95.87C149.339 94.2645 160.239 94.15 171 95.53C171.662 95.5274 172.297 95.2631 172.765 94.7949C173.233 94.3266 173.497 93.6922 173.5 93.03C173.485 92.3718 173.216 91.7447 172.751 91.2791C172.285 90.8135 171.658 90.5453 171 90.53C159.8 89.1426 148.462 89.3176 137.31 91.05C136.674 91.23 136.134 91.6526 135.807 92.2269C135.479 92.8011 135.391 93.481 135.56 94.12C135.753 94.7497 136.179 95.2818 136.752 95.6072C137.325 95.9325 138 96.0266 138.64 95.87H138.61Z" fill="#1D1D1B"/>
<path d="M178.62 114.79C182.17 115.07 185.68 114.34 189.14 113.66C191.77 113.15 194.39 112 195.79 109.6C196.399 108.55 196.699 107.349 196.657 106.135C196.614 104.922 196.231 103.745 195.55 102.74C194.768 101.515 193.66 100.531 192.35 99.9C190.89 99.32 188.97 100.2 187.6 100.79C182.6 102.92 178.15 107.61 177.27 113.14C176.777 115.835 177.181 118.617 178.42 121.06C179.555 123.116 181.233 124.822 183.27 125.99C187.74 128.63 193.96 128.78 197.64 124.7C198.098 124.225 198.354 123.59 198.354 122.93C198.354 122.27 198.098 121.635 197.64 121.16C197.169 120.698 196.535 120.439 195.875 120.439C195.215 120.439 194.581 120.698 194.11 121.16C193.93 121.36 193.73 121.55 193.54 121.74L193.28 121.97C193.62 121.69 193.33 121.97 193.28 121.97C193.23 121.97 192.84 122.23 192.62 122.36C192.4 122.49 192.42 122.46 192.32 122.51C192.75 122.3 192.32 122.51 192.21 122.51C192.1 122.51 191.72 122.66 191.47 122.72C191.22 122.78 190.67 122.87 190.94 122.83C191.21 122.79 190.48 122.83 190.38 122.83C190.084 122.845 189.787 122.845 189.49 122.83C189.37 122.83 189.26 122.83 189.15 122.83C188.75 122.83 189.53 122.91 189.15 122.83L188.37 122.67C187.842 122.54 187.324 122.373 186.82 122.17C187.24 122.34 186.44 121.97 186.35 121.93C186.26 121.89 185.94 121.7 185.74 121.58C185.54 121.46 185.28 121.29 185.05 121.13C185 121.13 184.62 120.8 184.83 120.97C185.04 121.14 184.67 120.82 184.64 120.8C184.232 120.435 183.848 120.044 183.49 119.63C183.24 119.33 183.69 119.91 183.49 119.63C183.42 119.53 183.35 119.44 183.29 119.34C183.23 119.24 182.96 118.82 182.81 118.55L182.61 118.14C182.61 118.14 182.74 118.47 182.61 118.2C182.509 117.949 182.422 117.691 182.35 117.43C182.192 116.908 182.111 116.366 182.11 115.82C182.084 113.421 182.922 111.093 184.47 109.26C186.397 106.872 189.094 105.228 192.1 104.61L190.17 104.35C190.43 104.484 190.667 104.659 190.87 104.87C191.024 105.009 191.171 105.156 191.31 105.31C191.15 105.13 191.25 105.22 191.31 105.31C191.37 105.4 191.46 105.57 191.54 105.69C191.87 106.21 191.49 105.48 191.54 105.78C191.54 105.91 191.61 106.05 191.65 106.17C191.69 106.29 191.65 105.75 191.65 106.17C191.65 106.3 191.65 106.44 191.65 106.56C191.65 106.25 191.7 106.27 191.65 106.56C191.65 106.56 191.51 107.03 191.65 106.73C191.79 106.43 191.56 106.92 191.52 106.98C191.48 107.04 191.37 107.22 191.29 107.33C191.5 107.04 191.29 107.27 191.18 107.41L190.85 107.71C190.55 107.97 191.3 107.45 190.68 107.82C190.133 108.175 189.521 108.42 188.88 108.54C187.78 108.81 186.65 108.99 185.54 109.2C183.28 109.676 180.965 109.844 178.66 109.7C177.999 109.705 177.366 109.97 176.898 110.438C176.43 110.906 176.165 111.539 176.16 112.2C176.173 112.859 176.44 113.488 176.906 113.954C177.373 114.42 178.001 114.687 178.66 114.7L178.62 114.79Z" fill="#1D1D1B"/>
<path d="M222.8 99C219.25 99.86 215.56 98.12 212.02 99.34C208.8 100.45 205.67 103.51 206.41 107.19C206.858 108.921 207.958 110.411 209.48 111.35C211.03 112.47 212.67 113.49 214.26 114.56L224.47 121.38L223.96 117.45C221.988 119.133 219.65 120.332 217.133 120.954C214.616 121.575 211.989 121.601 209.46 121.03C206.33 120.3 205 125.12 208.13 125.85C211.511 126.63 215.028 126.597 218.393 125.754C221.759 124.911 224.876 123.282 227.49 121C227.77 120.728 227.983 120.395 228.113 120.027C228.242 119.659 228.285 119.266 228.238 118.878C228.19 118.491 228.054 118.12 227.839 117.794C227.624 117.468 227.337 117.196 227 117L218.41 111.26L214.29 108.5C213.39 107.9 211.9 107.24 211.37 106.29C211.28 106.12 211.3 106.21 211.26 105.94C211.31 106.28 211.2 106.15 211.32 105.94C211.452 105.64 211.631 105.364 211.85 105.12C212.493 104.484 213.305 104.047 214.19 103.86C215.82 103.748 217.457 103.822 219.07 104.08C220.766 104.252 222.478 104.147 224.14 103.77C227.26 103.01 225.94 98.19 222.81 98.95L222.8 99Z" fill="#1D1D1B"/>
<path d="M242 91.23C242.91 94.37 242.85 97.75 242.85 101.03C242.85 104.31 242.69 107.81 243.01 111.18C243.65 117.93 247.22 125.89 254.6 127.28C255.24 127.439 255.916 127.346 256.49 127.02C257.063 126.695 257.489 126.161 257.68 125.53C257.849 124.891 257.761 124.211 257.433 123.637C257.106 123.063 256.566 122.64 255.93 122.46C250.04 121.35 248.11 114.35 247.93 109.33C247.66 102.94 248.67 96.13 246.86 89.9C245.97 86.82 241.14 88.13 242.04 91.23H242Z" fill="#1D1D1B"/>
<path d="M237.93 108.59C242.783 107.831 247.743 108.148 252.46 109.52C252.78 109.619 253.117 109.652 253.45 109.618C253.783 109.584 254.106 109.484 254.4 109.322C254.694 109.161 254.952 108.942 255.159 108.679C255.367 108.416 255.519 108.114 255.608 107.791C255.696 107.468 255.719 107.131 255.674 106.799C255.63 106.467 255.519 106.147 255.348 105.859C255.178 105.57 254.951 105.319 254.682 105.12C254.412 104.921 254.106 104.778 253.78 104.7C248.198 103.114 242.331 102.796 236.61 103.77C235.971 103.945 235.428 104.367 235.1 104.943C234.771 105.518 234.685 106.201 234.86 106.84C235.051 107.469 235.475 108.001 236.046 108.326C236.617 108.652 237.291 108.746 237.93 108.59Z" fill="#1D1D1B"/>
<path d="M274.33 91.23C275.27 89.07 277.92 87.91 279.79 89.72C282.2 92.05 279.89 94.95 278.64 97.22C276.894 100.441 276.009 104.058 276.071 107.721C276.132 111.384 277.137 114.969 278.99 118.13C280.64 120.89 284.99 118.38 283.31 115.61C281.37 112.359 280.63 108.53 281.22 104.79C281.545 102.89 282.201 101.062 283.16 99.39C284.34 97.6455 285.209 95.7104 285.73 93.67C286.127 91.6684 285.773 89.5905 284.736 87.8334C283.698 86.0762 282.049 84.7629 280.105 84.1444C278.16 83.5259 276.056 83.6454 274.193 84.4802C272.331 85.3151 270.842 86.8066 270.01 88.67C269.696 89.2474 269.615 89.9229 269.782 90.5585C269.949 91.194 270.353 91.7418 270.91 92.09C271.483 92.4199 272.162 92.5114 272.802 92.3449C273.442 92.1785 273.991 91.7673 274.33 91.2V91.23Z" fill="#1D1D1B"/>
<path d="M283.77 132.62L285.09 131.3C285.327 131.076 285.505 130.798 285.61 130.49C285.773 130.183 285.846 129.837 285.82 129.49C285.844 129.144 285.771 128.798 285.61 128.49C285.505 128.182 285.327 127.904 285.09 127.68L284.59 127.29C284.203 127.068 283.766 126.951 283.32 126.95L282.66 127.04C282.244 127.155 281.865 127.375 281.56 127.68L280.23 129.01C279.993 129.227 279.817 129.503 279.72 129.81C279.575 130.111 279.5 130.441 279.5 130.775C279.5 131.109 279.575 131.439 279.72 131.74C279.817 132.047 279.993 132.323 280.23 132.54L280.74 132.93C281.121 133.156 281.557 133.274 282 133.27L282.67 133.18C283.087 133.069 283.467 132.848 283.77 132.54V132.62Z" fill="#1D1D1B"/>
<path d="M131.75 477.19C129.79 464.583 129.73 451.755 131.57 439.13H126.75C132.61 453.36 138.6 467.67 148.31 479.79C149.62 481.42 152.8 480.11 152.58 478.02C151.396 467.007 151.909 455.878 154.1 445.02C154.26 444.381 154.168 443.706 153.844 443.133C153.521 442.56 152.989 442.133 152.36 441.94C151.72 441.77 151.039 441.859 150.463 442.186C149.887 442.513 149.462 443.053 149.28 443.69C146.962 454.972 146.388 466.544 147.58 478L151.85 476.23C142.72 464.85 137.08 451.15 131.57 437.78C131.41 437.261 131.092 436.804 130.66 436.474C130.228 436.144 129.703 435.958 129.16 435.94C128.613 435.942 128.081 436.123 127.646 436.455C127.211 436.787 126.896 437.252 126.75 437.78C124.76 451.285 124.82 465.013 126.93 478.5C127.112 479.136 127.537 479.676 128.113 480.001C128.69 480.327 129.371 480.413 130.01 480.24C130.64 480.051 131.173 479.627 131.497 479.055C131.821 478.483 131.912 477.807 131.75 477.17V477.19Z" fill="#1D1D1B"/>
<path d="M170.17 458.85C167.745 458.315 165.213 458.579 162.95 459.603C160.688 460.627 158.818 462.355 157.62 464.53C156.448 466.611 156.044 469.038 156.479 471.387C156.914 473.735 158.16 475.857 160 477.38C163.56 480.38 168.89 481.48 173 478.84C174.839 477.562 176.27 475.779 177.119 473.707C177.969 471.635 178.202 469.361 177.79 467.16C177.412 464.747 176.163 462.556 174.28 461C171.733 459.139 168.751 457.961 165.62 457.58C164.98 457.426 164.306 457.521 163.734 457.846C163.162 458.171 162.735 458.702 162.54 459.33C162.368 459.969 162.455 460.65 162.783 461.225C163.111 461.8 163.652 462.222 164.29 462.4C165.29 462.58 166.39 462.79 167.42 463.07C168.371 463.297 169.281 463.668 170.12 464.17C170.831 464.553 171.455 465.081 171.95 465.72C171.89 465.64 171.69 465.31 171.95 465.72C172.05 465.89 172.17 466.05 172.27 466.22L172.54 466.75C172.76 467.18 172.45 466.37 172.62 466.98C172.736 467.324 172.833 467.675 172.91 468.03C172.91 468.14 173.02 468.8 172.91 468.15C172.91 468.35 172.91 468.55 172.91 468.75C172.91 468.95 172.91 469.42 172.91 469.75C172.91 470.08 172.91 470.15 172.86 470.35C172.92 469.68 172.86 470.55 172.78 470.68C172.71 471.01 172.62 471.33 172.52 471.68L172.31 472.25C172.54 471.68 172.31 472.25 172.23 472.38C172.08 472.67 171.91 472.96 171.73 473.24C171.67 473.32 171.27 473.84 171.65 473.37C171.487 473.576 171.314 473.773 171.13 473.96C171 474.09 170.25 474.68 170.73 474.35C170.407 474.573 170.073 474.78 169.73 474.97C169.15 475.29 170.02 474.88 169.65 474.97C169.486 475.032 169.319 475.086 169.15 475.13C168.95 475.19 168.74 475.23 168.54 475.28C168.34 475.33 168.27 475.33 168.59 475.28H168.18C167.847 475.298 167.513 475.298 167.18 475.28C167.07 475.28 166.41 475.16 167.02 475.28C166.811 475.251 166.604 475.211 166.4 475.16C166.05 475.08 165.73 474.96 165.4 474.86C164.75 474.66 165.82 475.09 165.21 474.79C164.96 474.67 164.7 474.54 164.46 474.4C164.154 474.225 163.857 474.035 163.57 473.83C164.03 474.15 163.47 473.75 163.41 473.69L162.95 473.26C162.696 473.019 162.462 472.758 162.25 472.48C162.6 472.94 162.2 472.37 162.15 472.31C162 472.074 161.863 471.831 161.74 471.58C161.74 471.49 161.47 470.87 161.66 471.42C161.61 471.29 161.56 471.16 161.52 471.03C161.48 470.9 161.4 470.62 161.36 470.42C161.32 470.22 161.28 469.64 161.36 470.25C161.36 469.86 161.36 469.49 161.36 469.1C161.36 468.41 161.23 469.54 161.36 468.87C161.43 468.57 161.49 468.28 161.58 467.99C161.58 467.94 161.86 467.25 161.65 467.75C161.74 467.54 161.84 467.34 161.95 467.14C162.06 466.94 162.17 466.74 162.3 466.55C162.43 466.36 162.47 466.3 162.56 466.17C162.387 466.37 162.387 466.37 162.56 466.17C163.085 465.485 163.737 464.908 164.48 464.47C164.61 464.39 164.74 464.31 164.88 464.24C165.02 464.17 165.8 463.82 165.31 464.01C165.808 463.824 166.319 463.677 166.84 463.57C166.94 463.57 167.32 463.51 166.84 463.57C167.14 463.55 167.44 463.55 167.74 463.57C167.966 463.555 168.194 463.555 168.42 463.57C167.85 463.5 168.78 463.67 168.88 463.69C169.196 463.777 169.527 463.801 169.853 463.761C170.179 463.721 170.493 463.616 170.779 463.454C171.064 463.292 171.315 463.076 171.517 462.817C171.719 462.558 171.868 462.261 171.955 461.945C172.042 461.629 172.066 461.298 172.026 460.972C171.986 460.646 171.881 460.332 171.719 460.046C171.557 459.761 171.341 459.51 171.082 459.308C170.823 459.106 170.526 458.957 170.21 458.87L170.17 458.85Z" fill="#1D1D1B"/>
<path d="M185.93 442.1C186.03 446.19 186 450.29 185.93 454.39C185.93 458.24 185.69 462.12 185.93 465.96C186.17 469.8 186.71 475.04 189.85 477.79C190.524 478.43 191.356 478.88 192.261 479.093C193.166 479.305 194.111 479.273 195 479C197 478.31 198.19 476.47 198.85 474.52C199.85 471.47 195.06 470.16 194.03 473.19C193.931 473.549 193.768 473.888 193.55 474.19V474.14C193.32 474.36 193.29 474.39 193.46 474.25C193.46 474.43 193.05 474.25 193.64 474.25C193.34 474.25 193.34 474.25 193.64 474.25C193.39 474.18 193.34 474.17 193.49 474.25C193.386 474.199 193.292 474.131 193.21 474.05C193.074 473.915 192.947 473.772 192.83 473.62C192.439 473.019 192.142 472.361 191.95 471.67C191.038 468.317 190.67 464.84 190.86 461.37C190.92 454.94 191.07 448.51 190.92 442.08C190.85 438.86 185.85 438.85 185.92 442.08L185.93 442.1Z" fill="#1D1D1B"/>
<path d="M180.72 460.37C186.05 459.93 191.38 459.42 196.72 458.97C197.383 458.97 198.019 458.707 198.488 458.238C198.957 457.769 199.22 457.133 199.22 456.47C199.22 455.807 198.957 455.171 198.488 454.702C198.019 454.233 197.383 453.97 196.72 453.97C191.39 454.42 186.06 454.97 180.72 455.37C180.062 455.385 179.435 455.654 178.969 456.119C178.504 456.585 178.235 457.212 178.22 457.87C178.228 458.531 178.494 459.162 178.961 459.629C179.428 460.096 180.059 460.362 180.72 460.37Z" fill="#1D1D1B"/>
<path d="M206.16 459.08L209.62 476C209.802 476.635 210.225 477.173 210.799 477.5C211.372 477.827 212.051 477.917 212.69 477.75C213.324 477.563 213.861 477.138 214.187 476.563C214.514 475.989 214.604 475.31 214.44 474.67L211 457.75C210.82 457.114 210.397 456.574 209.823 456.247C209.249 455.919 208.569 455.831 207.93 456C207.296 456.187 206.759 456.612 206.433 457.187C206.106 457.761 206.016 458.44 206.18 459.08H206.16Z" fill="#1D1D1B"/>
<path d="M209.26 447.06V444.81C209.245 444.152 208.976 443.525 208.511 443.059C208.045 442.594 207.418 442.325 206.76 442.31L206.1 442.4C205.689 442.505 205.311 442.711 205 443L204.61 443.51C204.388 443.893 204.271 444.327 204.27 444.77V447.02C204.303 447.678 204.565 448.304 205.01 448.79C205.231 449.025 205.505 449.204 205.81 449.31C206.12 449.465 206.464 449.538 206.81 449.52L207.48 449.43C207.896 449.315 208.275 449.095 208.58 448.79L208.97 448.28C209.196 447.899 209.314 447.463 209.31 447.02L209.26 447.06Z" fill="#1D1D1B"/>
<path d="M234.89 447.08C233.41 443.72 230.55 440.34 226.44 441.6C221.74 443.04 223.19 448.66 223.67 452.24C224.87 461.207 226.153 470.167 227.52 479.12C228.3 484.18 229.103 489.23 229.93 494.27C230.114 494.902 230.539 495.437 231.112 495.761C231.686 496.084 232.364 496.17 233 496C233.629 495.809 234.16 495.384 234.483 494.813C234.807 494.241 234.899 493.567 234.74 492.93C233.16 483.317 231.68 473.693 230.3 464.06C229.633 459.393 228.99 454.71 228.37 450.01C228.093 448.865 227.968 447.688 228 446.51C228 446.26 227.64 446.24 228.14 446.33C229.31 446.53 230.04 448.41 230.56 449.58C230.896 450.151 231.444 450.566 232.085 450.735C232.725 450.903 233.407 450.812 233.98 450.48C234.541 450.135 234.948 449.587 235.115 448.95C235.283 448.313 235.199 447.636 234.88 447.06L234.89 447.08Z" fill="#1D1D1B"/>
<path d="M224.13 468.6L234.31 466.54C234.948 466.36 235.489 465.936 235.815 465.359C236.141 464.782 236.225 464.099 236.05 463.46C235.859 462.831 235.434 462.3 234.863 461.977C234.291 461.653 233.617 461.561 232.98 461.72L222.8 463.78C222.164 463.96 221.625 464.383 221.299 464.958C220.974 465.532 220.888 466.212 221.06 466.85C221.247 467.482 221.67 468.017 222.243 468.343C222.815 468.669 223.491 468.761 224.13 468.6Z" fill="#1D1D1B"/>
<path d="M245.94 459.45C250.128 464.208 253.556 469.584 256.1 475.39C256.438 475.959 256.986 476.372 257.626 476.541C258.265 476.709 258.946 476.619 259.52 476.29C260.079 475.943 260.484 475.396 260.652 474.759C260.819 474.123 260.736 473.447 260.42 472.87C257.676 466.671 253.986 460.935 249.48 455.87C249.247 455.638 248.972 455.453 248.668 455.327C248.364 455.202 248.039 455.137 247.71 455.137C247.381 455.137 247.056 455.202 246.752 455.327C246.448 455.453 246.172 455.638 245.94 455.87C245.708 456.102 245.523 456.378 245.397 456.682C245.272 456.986 245.207 457.311 245.207 457.64C245.207 457.969 245.272 458.294 245.397 458.598C245.523 458.902 245.708 459.178 245.94 459.41V459.45Z" fill="#1D1D1B"/>
<path d="M263.7 455.88C258.284 468.074 253.934 480.715 250.7 493.66C249.92 496.78 254.75 498.11 255.52 494.99C258.617 482.456 262.792 470.214 268 458.4C268.316 457.823 268.399 457.147 268.232 456.511C268.064 455.874 267.659 455.327 267.1 454.98C266.526 454.651 265.846 454.561 265.206 454.729C264.566 454.898 264.018 455.311 263.68 455.88H263.7Z" fill="#1D1D1B"/>
<path d="M290.41 436L290.27 436.07L292.19 435.81H292.09L293.58 436.96V438.74L292.68 439.63L292.81 439.55L291.55 439.89H291.72L290.46 439.55C290.02 439.34 289.91 437.98 289.88 439.17C289.88 439.5 289.88 439.83 289.88 440.17L289.81 442.4L289.66 446.85L289.37 456L288.79 474C288.69 477.22 293.69 477.22 293.79 474L294.64 447.79L294.85 441.36C294.91 439.45 295.3 437.18 293.78 435.7C293.412 435.342 292.957 435.087 292.459 434.961C291.962 434.835 291.44 434.842 290.946 434.982C290.452 435.122 290.004 435.389 289.647 435.758C289.289 436.126 289.035 436.582 288.91 437.08C288.758 437.607 288.766 438.168 288.931 438.691C289.096 439.214 289.412 439.677 289.838 440.022C290.265 440.367 290.785 440.578 291.331 440.629C291.877 440.68 292.426 440.569 292.91 440.31C293.194 440.145 293.442 439.925 293.641 439.663C293.839 439.402 293.985 439.104 294.068 438.786C294.152 438.469 294.172 438.138 294.128 437.812C294.083 437.487 293.976 437.174 293.81 436.89C293.645 436.606 293.425 436.358 293.163 436.159C292.902 435.961 292.604 435.815 292.286 435.732C291.969 435.648 291.638 435.628 291.313 435.672C290.987 435.717 290.674 435.825 290.39 435.99L290.41 436Z" fill="#1D1D1B"/>
<path d="M289.35 489.83L288.35 491.83C288.171 492.109 288.067 492.429 288.05 492.76C287.959 493.087 287.959 493.433 288.05 493.76C288.116 494.078 288.269 494.372 288.49 494.61C288.668 494.883 288.912 495.107 289.2 495.26L289.79 495.51C290.225 495.63 290.685 495.63 291.12 495.51L291.72 495.26C292.086 495.034 292.394 494.726 292.62 494.36L293.62 492.36C293.805 492.084 293.909 491.762 293.92 491.43C294.01 491.103 294.01 490.757 293.92 490.43C293.841 490.114 293.687 489.823 293.47 489.58C293.291 489.314 293.051 489.094 292.77 488.94L292.17 488.69C291.735 488.57 291.275 488.57 290.84 488.69L290.24 488.94C289.871 489.158 289.564 489.468 289.35 489.84V489.83Z" fill="#1D1D1B"/>
</g>
<defs>
<clipPath id="clip0">
<rect width="715.36" height="806.76" fill="white"/>
</clipPath>
</defs>
</svg>
