<svg width="1024" height="838" viewBox="0 0 1024 838" fill="none" xmlns="http://www.w3.org/2000/svg">
<path d="M494.252 681.576C491.478 681.576 488.675 681.533 485.924 681.447L485.987 679.449C489.937 679.572 493.968 679.606 497.937 679.551L497.964 681.551C496.729 681.568 495.492 681.576 494.252 681.576ZM509.997 681.113L509.88 679.117C513.836 678.883 517.843 678.555 521.789 678.142L521.998 680.13C518.022 680.547 513.985 680.878 509.997 681.113H509.997ZM473.902 680.801C469.912 680.495 465.881 680.095 461.919 679.609L462.163 677.624C466.095 678.106 470.095 678.504 474.054 678.807L473.902 680.801ZM533.941 678.602L533.641 676.625C537.572 676.029 541.533 675.336 545.411 674.566L545.8 676.527C541.892 677.303 537.902 678.001 533.941 678.602V678.602ZM450.006 677.87C446.065 677.202 442.087 676.435 438.182 675.587L438.607 673.632C442.481 674.474 446.429 675.236 450.34 675.898L450.006 677.87ZM557.554 673.909L557.074 671.967C560.932 671.013 564.812 669.958 568.606 668.833L569.174 670.751C565.351 671.885 561.442 672.948 557.554 673.909V673.909ZM426.478 672.762C422.612 671.734 418.722 670.603 414.915 669.399L415.518 667.492C419.296 668.687 423.156 669.809 426.992 670.828L426.478 672.762ZM580.636 667.061L579.98 665.172C583.724 663.87 587.49 662.463 591.174 660.989L591.916 662.846C588.204 664.331 584.41 665.749 580.636 667.061V667.061ZM403.491 665.494C399.736 664.115 395.958 662.625 392.263 661.069L393.039 659.225C396.706 660.77 400.455 662.247 404.181 663.617L403.491 665.494ZM602.965 658.126L602.137 656.306C605.733 654.672 609.347 652.928 612.879 651.122L613.789 652.904C610.23 654.723 606.588 656.48 602.965 658.126V658.126ZM624.364 647.188L623.373 645.451C626.822 643.484 630.264 641.415 633.603 639.303L634.671 640.992C631.307 643.121 627.839 645.206 624.364 647.188V647.188ZM644.687 634.33L643.542 632.692C646.789 630.423 650.03 628.047 653.173 625.631L654.392 627.217C651.225 629.652 647.959 632.045 644.687 634.33V634.33ZM339.861 631.514C336.633 629.169 333.409 626.713 330.276 624.212L331.524 622.65C334.633 625.131 337.833 627.569 341.036 629.895L339.861 631.514ZM663.764 619.668L662.475 618.139C665.501 615.585 668.513 612.924 671.428 610.229L672.786 611.698C669.849 614.413 666.814 617.095 663.764 619.668V619.668ZM321.036 616.483C318.03 613.85 315.043 611.112 312.159 608.343L313.544 606.9C316.406 609.648 319.37 612.366 322.353 614.979L321.036 616.483ZM681.437 603.322L680.013 601.917C682.803 599.09 685.563 596.164 688.214 593.222L689.701 594.56C687.029 597.526 684.248 600.473 681.437 603.322V603.322ZM303.664 599.81C300.906 596.909 298.182 593.911 295.567 590.9L297.078 589.589C299.672 592.578 302.375 595.553 305.113 598.431L303.664 599.81ZM697.557 585.43L696.012 584.16C698.533 581.093 701.014 577.928 703.39 574.751L704.992 575.949C702.598 579.15 700.097 582.34 697.557 585.43ZM287.886 581.633C285.409 578.503 282.97 575.272 280.637 572.029L282.26 570.861C284.576 574.078 286.996 577.285 289.454 580.393L287.886 581.633ZM711.986 566.136L710.331 565.013C712.562 561.729 714.746 558.349 716.824 554.965L718.529 556.012C716.434 559.421 714.233 562.827 711.986 566.136ZM273.835 562.107C271.656 558.766 269.523 555.328 267.495 551.887L269.218 550.871C271.23 554.286 273.347 557.698 275.51 561.013L273.835 562.107ZM724.601 545.596L722.851 544.629C724.771 541.155 726.636 537.586 728.397 534.023L730.19 534.909C728.416 538.499 726.536 542.095 724.601 545.596ZM735.282 523.975L733.45 523.172C735.043 519.533 736.574 515.805 737.998 512.094L739.866 512.811C738.43 516.551 736.887 520.307 735.282 523.975ZM251.379 519.659C249.846 515.98 248.378 512.215 247.015 508.469L248.895 507.785C250.247 511.503 251.704 515.239 253.225 518.89L251.379 519.659ZM743.93 501.444L742.032 500.815C743.28 497.054 744.457 493.21 745.532 489.389L747.457 489.93C746.374 493.781 745.187 497.655 743.93 501.444V501.444ZM243.163 497.061C241.973 493.249 240.855 489.356 239.84 485.487L241.774 484.979C242.782 488.819 243.891 492.683 245.072 496.465L243.163 497.061ZM750.449 478.266L748.5 477.813C749.396 473.958 750.214 470.022 750.934 466.115L752.901 466.476C752.176 470.414 751.351 474.38 750.449 478.266V478.266ZM237.055 473.772C236.221 469.866 235.466 465.886 234.811 461.942L236.784 461.614C237.434 465.529 238.183 469.478 239.011 473.354L237.055 473.772ZM754.807 454.588L752.825 454.317C753.363 450.4 753.817 446.406 754.175 442.445L756.167 442.624C755.806 446.617 755.348 450.641 754.807 454.588H754.807ZM233.113 450.022C232.642 446.063 232.254 442.031 231.962 438.037L233.957 437.891C234.246 441.855 234.631 445.856 235.1 449.785L233.113 450.022ZM756.982 430.613L754.984 430.523C755.162 426.56 755.252 422.54 755.252 418.576H757.252C757.252 422.571 757.162 426.62 756.982 430.613V430.613ZM231.356 426.011C231.287 423.559 231.253 421.057 231.252 418.576C231.252 417.037 231.266 415.501 231.292 413.968L233.292 414.003C233.266 415.525 233.252 417.049 233.252 418.576C233.253 421.038 233.287 423.522 233.355 425.956L231.356 426.011ZM233.766 402.063L231.77 401.938C232.02 397.942 232.365 393.906 232.794 389.942L234.782 390.157C234.356 394.092 234.015 398.097 233.766 402.063H233.766ZM753.961 389.862C753.562 385.919 753.012 383.996 752.432 380.071L754.411 379.779C754.995 383.734 755.496 386.754 755.899 390.726L753.961 389.862ZM236.339 378.31L234.363 378.005C234.975 374.048 235.687 370.06 236.479 366.151L238.439 366.547C237.654 370.427 236.947 374.385 236.339 378.31H236.339ZM750.413 368.295C749.651 364.393 748.79 360.466 747.855 356.622L749.798 356.15C750.741 360.023 751.608 363.98 752.376 367.911L750.413 368.295ZM241.077 354.893L239.137 354.407C240.108 350.534 241.183 346.628 242.334 342.798L244.249 343.373C243.108 347.174 242.04 351.05 241.077 354.893ZM744.761 345.08C743.646 341.272 742.427 337.441 741.139 333.693L743.03 333.043C744.328 336.82 745.557 340.681 746.681 344.517L744.761 345.08ZM247.961 331.98L246.075 331.317C247.404 327.536 248.839 323.737 250.34 320.026L252.194 320.776C250.704 324.458 249.28 328.228 247.961 331.98V331.98ZM736.995 322.485C735.536 318.804 733.973 315.111 732.35 311.506L734.174 310.684C735.81 314.317 737.384 318.039 738.854 321.748L736.995 322.485ZM256.938 309.783L255.12 308.948C256.791 305.31 258.569 301.662 260.405 298.105L262.182 299.022C260.36 302.552 258.596 306.172 256.938 309.783ZM727.206 300.747C725.416 297.216 723.52 293.678 721.57 290.232L723.31 289.247C725.276 292.72 727.186 296.284 728.99 299.843L727.206 300.747ZM267.915 288.517L266.182 287.519C268.177 284.055 270.281 280.587 272.435 277.213L274.121 278.289C271.983 281.638 269.894 285.079 267.915 288.517ZM715.456 279.982C713.343 276.618 711.13 273.266 708.879 270.02L710.522 268.881C712.79 272.152 715.021 275.529 717.15 278.919L715.456 279.982ZM280.788 268.359L279.153 267.206C281.459 263.936 283.869 260.677 286.32 257.519L287.9 258.744C285.469 261.879 283.076 265.114 280.788 268.359ZM701.852 260.367C699.442 257.21 696.932 254.072 694.39 251.039L695.923 249.755C698.484 252.81 701.013 255.972 703.442 259.153L701.852 260.367ZM295.441 249.468L293.919 248.171C296.506 245.132 299.203 242.107 301.934 239.18L303.396 240.544C300.686 243.449 298.01 246.451 295.441 249.468ZM686.511 242.059C683.825 239.135 681.037 236.237 678.229 233.446L679.639 232.027C682.469 234.84 685.277 237.76 687.984 240.706L686.511 242.059ZM311.746 231.995L310.348 230.566C313.207 227.768 316.167 225.002 319.143 222.344L320.475 223.837C317.521 226.473 314.584 229.219 311.746 231.995V231.995ZM669.564 225.216C666.62 222.545 663.579 219.911 660.529 217.387L661.804 215.846C664.877 218.389 667.941 221.043 670.908 223.734L669.564 225.216ZM329.564 216.084L328.302 214.533C331.395 212.014 334.592 209.53 337.804 207.149L338.995 208.755C335.807 211.118 332.634 213.584 329.564 216.084V216.084ZM348.746 201.867L347.63 200.207C350.941 197.98 354.349 195.799 357.761 193.723L358.8 195.432C355.414 197.492 352.032 199.657 348.746 201.867ZM369.134 189.465L368.174 187.71C371.677 185.794 375.268 183.934 378.848 182.183L379.727 183.98C376.174 185.718 372.61 187.563 369.134 189.465H369.134ZM610.504 184.831C606.946 183.058 603.3 181.346 599.669 179.741L600.478 177.911C604.137 179.529 607.811 181.255 611.397 183.041L610.504 184.831ZM390.556 178.987L389.761 177.152C393.421 175.566 397.165 174.044 400.889 172.63L401.599 174.5C397.904 175.903 394.188 177.413 390.556 178.987H390.556ZM588.608 175.153C584.905 173.717 581.115 172.346 577.342 171.081L577.979 169.184C581.78 170.46 585.599 171.841 589.33 173.288L588.608 175.153ZM412.865 170.516L412.242 168.616C416.042 167.369 419.92 166.196 423.767 165.129L424.302 167.056C420.484 168.115 416.636 169.279 412.865 170.516ZM565.928 167.542C562.114 166.455 558.223 165.442 554.365 164.533L554.824 162.586C558.712 163.503 562.632 164.523 566.477 165.618L565.928 167.542ZM435.887 164.127L435.441 162.177C439.338 161.287 443.307 160.476 447.238 159.767L447.594 161.735C443.692 162.439 439.753 163.243 435.887 164.127V164.127ZM542.674 162.06C538.78 161.329 534.813 160.679 530.883 160.127L531.161 158.146C535.121 158.702 539.119 159.358 543.043 160.094L542.674 162.06ZM459.399 159.884L459.134 157.901C463.093 157.373 467.12 156.929 471.101 156.582L471.275 158.574C467.324 158.919 463.328 159.359 459.399 159.884V159.884ZM519.015 158.736C515.076 158.365 511.066 158.079 507.096 157.887L507.194 155.889C511.193 156.083 515.233 156.371 519.203 156.745L519.015 158.736ZM483.201 157.807L483.117 155.809C486.792 155.656 490.538 155.577 494.252 155.576L495.158 155.578L495.152 157.578L494.252 157.576C490.567 157.577 486.848 157.655 483.201 157.807V157.807Z" fill="#3F3D56"/>
<path d="M488.961 494.862C533.696 494.862 569.961 458.597 569.961 413.862C569.961 369.127 533.696 332.862 488.961 332.862C444.226 332.862 407.961 369.127 407.961 413.862C407.961 458.597 444.226 494.862 488.961 494.862Z" fill="#FFCE82"/>
<path d="M539.961 405.862H496.961V362.862H480.961V405.862H437.961V421.862H480.961V464.862H496.961V421.862H539.961V405.862Z" fill="white"/>
<path d="M346.761 550.69H236.609V679.023H346.761V550.69Z" fill="#F2F2F2"/>
<path d="M389.539 680.092H235.539V526.092H389.539V680.092ZM237.678 677.954H387.4V528.231H237.678V677.954Z" fill="#3F3D56"/>
<path d="M361.733 571.009H267.622V573.148H361.733V571.009Z" fill="#3F3D56"/>
<path d="M361.733 594.537H267.622V596.676H361.733V594.537Z" fill="#3F3D56"/>
<path d="M361.733 618.065H267.622V620.204H361.733V618.065Z" fill="#3F3D56"/>
<path d="M611.792 128.835H389.792V239H611.792V128.835Z" fill="#F2F2F2"/>
<path d="M656.792 240H388.792V106H656.792V240ZM390.792 238H654.792V108H390.792V238Z" fill="#3F3D56"/>
<path d="M572.761 161.917H428.822V163.917H572.761V161.917Z" fill="#3F3D56"/>
<path d="M572.761 182.917H428.822V184.917H572.761V182.917Z" fill="#3F3D56"/>
<path d="M572.761 203.917H428.822V205.917H572.761V203.917Z" fill="#3F3D56"/>
<path d="M789.961 406.862H694.961V507.862H789.961V406.862Z" fill="#F2F2F2"/>
<path d="M813.961 508.862H693.961V388.862H813.961V508.862ZM695.961 506.862H811.961V390.862H695.961V506.862Z" fill="#3F3D56"/>
<path d="M775.461 443.362H709.461V445.362H775.461V443.362Z" fill="#3F3D56"/>
<path d="M775.461 456.362H709.461V458.362H775.461V456.362Z" fill="#3F3D56"/>
<path d="M775.461 469.362H709.461V471.362H775.461V469.362Z" fill="#3F3D56"/>
<path d="M751.565 238H294.018V240H751.565V238Z" fill="#3F3D56"/>
<path d="M879.461 506.862H628.461V508.862H879.461V506.862Z" fill="#3F3D56"/>
<path d="M460.078 678.862H165V680.862H460.078V678.862Z" fill="#3F3D56"/>
</svg>
